<svg xmlns="http://www.w3.org/2000/svg" viewBox="0 0 683 532"><defs><style>.cls-1,.cls-2{fill:none;}.cls-1,.cls-2,.cls-3,.cls-4{stroke:#fff;stroke-miterlimit:10;}.cls-2{stroke-width:2px;}.cls-3,.cls-4,.cls-5,.cls-6{fill:#fff;}.cls-4{opacity:0.7;}.cls-6{opacity:0.2;}</style></defs><g id="Capa_4" data-name="Capa 4"><line class="cls-1" x1="675.02" y1="486.14" x2="36.55" y2="486.14"/><polyline class="cls-2" points="47.84 331.18 88.41 337.83 130.31 337.83 172.87 356.84 214.77 351.13 256.67 331.18 298.57 331.18 339.81 331.18 379.71 331.18 422.94 325.19 462.18 301.25 504.75 301.25 547.98 295.93 587.88 291.27 630.45 460.87 674.34 409.66"/><line class="cls-3" x1="48.52" y1="5.95" x2="48.52" y2="502.1"/><line class="cls-4" x1="675.02" y1="393.7" x2="36.55" y2="393.7"/><line class="cls-4" x1="675.02" y1="301.25" x2="36.55" y2="301.25"/><line class="cls-4" x1="675.02" y1="208.8" x2="36.55" y2="208.8"/><line class="cls-4" x1="675.02" y1="116.36" x2="36.55" y2="116.36"/><line class="cls-4" x1="675.02" y1="23.91" x2="36.55" y2="23.91"/><path class="cls-5" d="M7.3,30.73h7.38v1.84H4.35l0-1.73,6.88-6.19a4.79,4.79,0,0,0,1.14-1.42,3.41,3.41,0,0,0,.32-1.49,3.1,3.1,0,0,0-.41-1.6A3,3,0,0,0,11.18,19a3,3,0,0,0-1.59-.42A3.24,3.24,0,0,0,8,19a3,3,0,0,0-1.14,1.17,3.1,3.1,0,0,0-.41,1.57h-2a5.06,5.06,0,0,1,.67-2.58A4.62,4.62,0,0,1,7,17.38a5.44,5.44,0,0,1,2.65-.64,5.11,5.11,0,0,1,2.58.66A4.94,4.94,0,0,1,14,19.21a5.06,5.06,0,0,1,.67,2.55,4.75,4.75,0,0,1-.54,2.39,9.26,9.26,0,0,1-1.84,2.1Z"/><path class="cls-5" d="M24.71,23.25a4.92,4.92,0,0,1,1.83,1.85,5.17,5.17,0,0,1,.66,2.59,4.9,4.9,0,0,1-.73,2.61,5.36,5.36,0,0,1-2,1.91,5.23,5.23,0,0,1-2.65.7,5,5,0,0,1-3.17-1.08,5.23,5.23,0,0,1-1.86-2.78l1.86-.49a3.12,3.12,0,0,0,1.19,1.8,3.36,3.36,0,0,0,2,.68,3.27,3.27,0,0,0,1.69-.46,3.33,3.33,0,0,0,1.65-2.89A3.29,3.29,0,0,0,24.81,26a3.37,3.37,0,0,0-1.22-1.21,3.33,3.33,0,0,0-1.67-.44,3.49,3.49,0,0,0-1.71.41A3.43,3.43,0,0,0,19,25.82l-1.7-.65.47-8.11h8.35v1.81h-6.6l-.3,4.73a4.68,4.68,0,0,1,1.35-.75,4.61,4.61,0,0,1,1.56-.27A5.08,5.08,0,0,1,24.71,23.25Z"/><path class="cls-5" d="M31.24,522.32h7.37v1.83H28.28l0-1.73,6.88-6.18a4.52,4.52,0,0,0,1.14-1.43,3.38,3.38,0,0,0,.33-1.48,3.24,3.24,0,0,0-.41-1.61,3.21,3.21,0,0,0-4.36-1.13,3,3,0,0,0-1.14,1.16,3.24,3.24,0,0,0-.41,1.58h-2a5,5,0,0,1,.67-2.59A4.6,4.6,0,0,1,30.89,509a5.58,5.58,0,0,1,2.65-.64,5.11,5.11,0,0,1,2.58.66,4.79,4.79,0,0,1,1.82,1.81,5,5,0,0,1,.67,2.56,4.74,4.74,0,0,1-.54,2.38,9,9,0,0,1-1.83,2.1Z"/><path class="cls-5" d="M43.75,523.82a4.9,4.9,0,0,1-1.87-1.88,5.26,5.26,0,0,1-.68-2.68v-5.7a5.26,5.26,0,0,1,.68-2.68A4.9,4.9,0,0,1,43.75,509a5.64,5.64,0,0,1,5.37,0A5,5,0,0,1,51,510.88a5.37,5.37,0,0,1,.68,2.68v5.7a5.37,5.37,0,0,1-.68,2.68,5,5,0,0,1-1.88,1.88,5.64,5.64,0,0,1-5.37,0Zm4.35-1.62a3.26,3.26,0,0,0,1.19-1.2,3.14,3.14,0,0,0,.45-1.64v-5.93a3.16,3.16,0,0,0-.45-1.64,3.23,3.23,0,0,0-1.19-1.19,3.2,3.2,0,0,0-1.66-.44,3.13,3.13,0,0,0-1.64.44,3.25,3.25,0,0,0-1.64,2.83v5.93A3.22,3.22,0,0,0,43.6,521a3.29,3.29,0,0,0,1.2,1.2,3.22,3.22,0,0,0,1.64.44A3.3,3.3,0,0,0,48.1,522.2Z"/><path class="cls-5" d="M57.25,523.82a5,5,0,0,1-1.88-1.88,5.37,5.37,0,0,1-.68-2.68v-5.7a5.37,5.37,0,0,1,.68-2.68A5,5,0,0,1,57.25,509a5.64,5.64,0,0,1,5.37,0,4.9,4.9,0,0,1,1.87,1.88,5.26,5.26,0,0,1,.68,2.68v5.7a5.26,5.26,0,0,1-.68,2.68,4.9,4.9,0,0,1-1.87,1.88,5.64,5.64,0,0,1-5.37,0Zm4.34-1.62a3.21,3.21,0,0,0,1.2-1.2,3.13,3.13,0,0,0,.44-1.64v-5.93a3.15,3.15,0,0,0-.44-1.64,3.19,3.19,0,0,0-1.2-1.19,3.15,3.15,0,0,0-1.66-.44,3.09,3.09,0,0,0-1.63.44,3.19,3.19,0,0,0-1.2,1.19,3.15,3.15,0,0,0-.44,1.64v5.93A3.13,3.13,0,0,0,57.1,521a3.29,3.29,0,0,0,4.49,1.2Z"/><path class="cls-5" d="M76.29,514.85a4.9,4.9,0,0,1,1.82,1.85,5.11,5.11,0,0,1,.67,2.6,5,5,0,0,1-.71,2.61,5.27,5.27,0,0,1-1.93,1.88,5.32,5.32,0,0,1-5.33,0,5.09,5.09,0,0,1-1.92-2,5.65,5.65,0,0,1-.7-2.78v-5.15a5.9,5.9,0,0,1,.7-2.88,5.06,5.06,0,0,1,2-2,5.59,5.59,0,0,1,2.83-.72,5.49,5.49,0,0,1,2.38.53,5.14,5.14,0,0,1,1.87,1.5l-1.45,1.27a3.39,3.39,0,0,0-1.22-1.06,3.23,3.23,0,0,0-1.58-.4,3.42,3.42,0,0,0-1.81.48,3.59,3.59,0,0,0-1.71,3v2.09a4.94,4.94,0,0,1,1.62-1.17,4.67,4.67,0,0,1,1.94-.42A4.93,4.93,0,0,1,76.29,514.85Zm-1.12,7.34A3.48,3.48,0,0,0,76.39,521a3.34,3.34,0,0,0,0-3.35,3.42,3.42,0,0,0-1.22-1.23,3.32,3.32,0,0,0-3.34,0,3.35,3.35,0,0,0-1.22,1.23,3.28,3.28,0,0,0,0,3.35,3.4,3.4,0,0,0,1.22,1.22,3.32,3.32,0,0,0,3.34,0Z"/><path class="cls-5" d="M191.36,522.64h7.38v1.83H188.41l0-1.72,6.88-6.19a4.64,4.64,0,0,0,1.14-1.42,3.41,3.41,0,0,0,.32-1.49,3.14,3.14,0,0,0-.41-1.61,3,3,0,0,0-1.12-1.14,3,3,0,0,0-1.59-.42,3.14,3.14,0,0,0-1.64.43,3.18,3.18,0,0,0-1.55,2.74h-2a5.1,5.1,0,0,1,.67-2.59,4.75,4.75,0,0,1,1.86-1.78,5.55,5.55,0,0,1,2.65-.63,5.2,5.2,0,0,1,2.58.65,5,5,0,0,1,1.82,1.82,5,5,0,0,1,.67,2.55,4.71,4.71,0,0,1-.54,2.38,9.06,9.06,0,0,1-1.84,2.11Z"/><path class="cls-5" d="M203.88,524.14a4.92,4.92,0,0,1-1.88-1.88,5.34,5.34,0,0,1-.68-2.68v-5.69a5.38,5.38,0,0,1,.68-2.69,4.9,4.9,0,0,1,1.88-1.87,5.64,5.64,0,0,1,5.37,0,4.8,4.8,0,0,1,1.87,1.87,5.27,5.27,0,0,1,.68,2.69v5.69a5.24,5.24,0,0,1-.68,2.68,4.83,4.83,0,0,1-1.87,1.88,5.64,5.64,0,0,1-5.37,0Zm4.34-1.62a3.19,3.19,0,0,0,1.2-1.19,3.25,3.25,0,0,0,.44-1.64v-5.93a3.22,3.22,0,0,0-.44-1.64,3.29,3.29,0,0,0-1.2-1.2,3.31,3.31,0,0,0-3.3,0,3.34,3.34,0,0,0-1.19,1.2,3.13,3.13,0,0,0-.44,1.64v5.93a3.15,3.15,0,0,0,.44,1.64,3.23,3.23,0,0,0,1.19,1.19,3.31,3.31,0,0,0,3.3,0Z"/><path class="cls-5" d="M217.54,511.08l-2.93,1.77v-2.13l2.93-1.75h1.94V524.5h-1.94Z"/><path class="cls-5" d="M226.13,524.14a4.92,4.92,0,0,1-1.88-1.88,5.34,5.34,0,0,1-.68-2.68v-5.69a5.38,5.38,0,0,1,.68-2.69,4.9,4.9,0,0,1,1.88-1.87,5.64,5.64,0,0,1,5.37,0,4.9,4.9,0,0,1,1.88,1.87,5.37,5.37,0,0,1,.67,2.69v5.69a5.33,5.33,0,0,1-.67,2.68,4.92,4.92,0,0,1-1.88,1.88,5.64,5.64,0,0,1-5.37,0Zm4.34-1.62a3.19,3.19,0,0,0,1.2-1.19,3.15,3.15,0,0,0,.44-1.64v-5.93a3.13,3.13,0,0,0-.44-1.64,3.29,3.29,0,0,0-1.2-1.2,3.29,3.29,0,0,0-3.29,0,3.29,3.29,0,0,0-1.2,1.2,3.13,3.13,0,0,0-.44,1.64v5.93a3.15,3.15,0,0,0,.44,1.64,3.19,3.19,0,0,0,1.2,1.19,3.29,3.29,0,0,0,3.29,0Z"/><path class="cls-5" d="M363.46,522.64h7.38v1.83H360.51l0-1.72,6.88-6.19a4.49,4.49,0,0,0,1.14-1.42,3.42,3.42,0,0,0,.33-1.49,3.24,3.24,0,0,0-.41-1.61,3.09,3.09,0,0,0-1.13-1.14,3,3,0,0,0-1.59-.42,3.16,3.16,0,0,0-1.64.43,3.18,3.18,0,0,0-1.55,2.74h-2a5.09,5.09,0,0,1,.66-2.59,4.75,4.75,0,0,1,1.86-1.78,5.55,5.55,0,0,1,2.65-.63,5.2,5.2,0,0,1,2.58.65,4.89,4.89,0,0,1,1.82,1.82,5,5,0,0,1,.67,2.55,4.71,4.71,0,0,1-.54,2.38,9.23,9.23,0,0,1-1.83,2.11Z"/><path class="cls-5" d="M376,524.14a4.92,4.92,0,0,1-1.88-1.88,5.33,5.33,0,0,1-.67-2.68v-5.69a5.37,5.37,0,0,1,.67-2.69,4.9,4.9,0,0,1,1.88-1.87,5.64,5.64,0,0,1,5.37,0,4.9,4.9,0,0,1,1.88,1.87,5.37,5.37,0,0,1,.67,2.69v5.69a5.33,5.33,0,0,1-.67,2.68,4.92,4.92,0,0,1-1.88,1.88,5.64,5.64,0,0,1-5.37,0Zm4.35-1.62a3.23,3.23,0,0,0,1.19-1.19,3.15,3.15,0,0,0,.44-1.64v-5.93a3.13,3.13,0,0,0-.44-1.64,3.25,3.25,0,0,0-2.86-1.64,3.21,3.21,0,0,0-1.63.44,3.29,3.29,0,0,0-1.2,1.2,3.13,3.13,0,0,0-.44,1.64v5.93a3.15,3.15,0,0,0,.44,1.64,3.19,3.19,0,0,0,1.2,1.19,3.12,3.12,0,0,0,1.63.44A3.21,3.21,0,0,0,380.33,522.52Z"/><path class="cls-5" d="M389.64,511.08l-2.93,1.77v-2.13l2.93-1.75h1.94V524.5h-1.94Z"/><path class="cls-5" d="M402.38,521.63h-7.13v-1.81L400.38,509h2.18l-5.14,10.85h5v-4.38h1.94v4.38h1.62v1.81h-1.62v2.87h-1.94Z"/><path class="cls-5" d="M527.88,522.64h7.38v1.83H524.93l0-1.72,6.88-6.19a4.49,4.49,0,0,0,1.14-1.42,3.42,3.42,0,0,0,.33-1.49,3.24,3.24,0,0,0-.41-1.61,3.21,3.21,0,0,0-4.36-1.13,3.18,3.18,0,0,0-1.55,2.74h-2a5.09,5.09,0,0,1,.66-2.59,4.75,4.75,0,0,1,1.86-1.78,5.55,5.55,0,0,1,2.65-.63,5.2,5.2,0,0,1,2.58.65,5,5,0,0,1,2.49,4.37,4.71,4.71,0,0,1-.54,2.38,9.23,9.23,0,0,1-1.83,2.11Z"/><path class="cls-5" d="M540.4,524.14a4.92,4.92,0,0,1-1.88-1.88,5.33,5.33,0,0,1-.67-2.68v-5.69a5.37,5.37,0,0,1,.67-2.69,4.9,4.9,0,0,1,1.88-1.87,5.64,5.64,0,0,1,5.37,0,4.9,4.9,0,0,1,1.88,1.87,5.37,5.37,0,0,1,.67,2.69v5.69a5.33,5.33,0,0,1-.67,2.68,4.92,4.92,0,0,1-1.88,1.88,5.64,5.64,0,0,1-5.37,0Zm4.35-1.62a3.23,3.23,0,0,0,1.19-1.19,3.15,3.15,0,0,0,.44-1.64v-5.93a3.13,3.13,0,0,0-.44-1.64,3.34,3.34,0,0,0-1.19-1.2,3.3,3.3,0,0,0-1.66-.44,3.22,3.22,0,0,0-1.64.44,3.29,3.29,0,0,0-1.2,1.2,3.13,3.13,0,0,0-.44,1.64v5.93a3.15,3.15,0,0,0,.44,1.64,3.19,3.19,0,0,0,1.2,1.19,3.13,3.13,0,0,0,1.64.44A3.2,3.2,0,0,0,544.75,522.52Z"/><path class="cls-5" d="M554.06,511.08l-2.93,1.77v-2.13l2.93-1.75H556V524.5h-1.94Z"/><path class="cls-5" d="M569.52,517.82a4.85,4.85,0,0,1,.52,2.23,4.76,4.76,0,0,1-.65,2.49,4.35,4.35,0,0,1-1.81,1.69,5.78,5.78,0,0,1-2.63.59,5.71,5.71,0,0,1-2.62-.59,4.38,4.38,0,0,1-1.8-1.69,4.76,4.76,0,0,1-.65-2.49,4.85,4.85,0,0,1,.51-2.23,4.14,4.14,0,0,1,1.52-1.65,3.68,3.68,0,0,1-1.22-1.41,4.17,4.17,0,0,1-.42-1.87,4.24,4.24,0,0,1,.59-2.25,4,4,0,0,1,1.66-1.48,6,6,0,0,1,4.85,0,4,4,0,0,1,1.68,1.48,4.16,4.16,0,0,1,.6,2.25,4.29,4.29,0,0,1-.41,1.88,3.51,3.51,0,0,1-1.23,1.4A4.34,4.34,0,0,1,569.52,517.82Zm-2.35,4.4a3.22,3.22,0,0,0,0-4.33,3.16,3.16,0,0,0-2.23-.77,3.11,3.11,0,0,0-2.22.77,3.25,3.25,0,0,0,0,4.33A3.13,3.13,0,0,0,565,523,3.17,3.17,0,0,0,567.17,522.22ZM563,511.12a2.55,2.55,0,0,0,0,3.55,3.31,3.31,0,0,0,3.86,0,2.55,2.55,0,0,0,0-3.55,3.31,3.31,0,0,0-3.86,0Z"/><path class="cls-5" d="M612.54,522.64h7.38v1.83H609.59l0-1.72,6.88-6.19a4.79,4.79,0,0,0,1.14-1.42,3.41,3.41,0,0,0,.32-1.49,3.14,3.14,0,0,0-.41-1.61,3,3,0,0,0-1.12-1.14,3,3,0,0,0-1.59-.42,3.14,3.14,0,0,0-1.64.43,3.18,3.18,0,0,0-1.55,2.74h-2a5.1,5.1,0,0,1,.67-2.59,4.75,4.75,0,0,1,1.86-1.78,5.55,5.55,0,0,1,2.65-.63,5.2,5.2,0,0,1,2.58.65,5,5,0,0,1,1.82,1.82,5,5,0,0,1,.67,2.55,4.71,4.71,0,0,1-.54,2.38,9.06,9.06,0,0,1-1.84,2.11Z"/><path class="cls-5" d="M625.06,524.14a4.92,4.92,0,0,1-1.88-1.88,5.34,5.34,0,0,1-.68-2.68v-5.69a5.38,5.38,0,0,1,.68-2.69,4.9,4.9,0,0,1,1.88-1.87,5.64,5.64,0,0,1,5.37,0,4.8,4.8,0,0,1,1.87,1.87,5.27,5.27,0,0,1,.68,2.69v5.69a5.24,5.24,0,0,1-.68,2.68,4.83,4.83,0,0,1-1.87,1.88,5.64,5.64,0,0,1-5.37,0Zm4.34-1.62a3.19,3.19,0,0,0,1.2-1.19,3.25,3.25,0,0,0,.44-1.64v-5.93a3.22,3.22,0,0,0-.44-1.64,3.29,3.29,0,0,0-1.2-1.2,3.31,3.31,0,0,0-3.3,0,3.34,3.34,0,0,0-1.19,1.2,3.13,3.13,0,0,0-.44,1.64v5.93a3.15,3.15,0,0,0,.44,1.64,3.23,3.23,0,0,0,1.19,1.19,3.31,3.31,0,0,0,3.3,0Z"/><path class="cls-5" d="M638.52,522.64h7.38v1.83H635.57l0-1.72,6.88-6.19a4.49,4.49,0,0,0,1.14-1.42,3.42,3.42,0,0,0,.33-1.49,3.24,3.24,0,0,0-.41-1.61,3.09,3.09,0,0,0-1.13-1.14,3,3,0,0,0-1.59-.42,3.16,3.16,0,0,0-1.64.43,3.18,3.18,0,0,0-1.55,2.74h-2a5.09,5.09,0,0,1,.66-2.59,4.75,4.75,0,0,1,1.86-1.78,5.55,5.55,0,0,1,2.65-.63,5.2,5.2,0,0,1,2.58.65,4.89,4.89,0,0,1,1.82,1.82,5,5,0,0,1,.67,2.55,4.71,4.71,0,0,1-.54,2.38,9.23,9.23,0,0,1-1.83,2.11Z"/><path class="cls-5" d="M651,524.14a4.92,4.92,0,0,1-1.88-1.88,5.33,5.33,0,0,1-.67-2.68v-5.69a5.37,5.37,0,0,1,.67-2.69,4.9,4.9,0,0,1,1.88-1.87,5.64,5.64,0,0,1,5.37,0,4.9,4.9,0,0,1,1.88,1.87,5.37,5.37,0,0,1,.67,2.69v5.69a5.33,5.33,0,0,1-.67,2.68,4.92,4.92,0,0,1-1.88,1.88,5.64,5.64,0,0,1-5.37,0Zm4.34-1.62a3.19,3.19,0,0,0,1.2-1.19,3.15,3.15,0,0,0,.44-1.64v-5.93a3.13,3.13,0,0,0-.44-1.64,3.29,3.29,0,0,0-1.2-1.2,3.29,3.29,0,0,0-3.29,0,3.29,3.29,0,0,0-1.2,1.2,3.13,3.13,0,0,0-.44,1.64v5.93a3.15,3.15,0,0,0,.44,1.64,3.19,3.19,0,0,0,1.2,1.19,3.29,3.29,0,0,0,3.29,0Z"/><path class="cls-5" d="M7.3,121.72h7.38v1.83H4.35l0-1.73,6.88-6.18a4.82,4.82,0,0,0,1.14-1.43,3.38,3.38,0,0,0,.32-1.49,3.13,3.13,0,0,0-.41-1.6A3,3,0,0,0,11.18,110a3,3,0,0,0-1.59-.42A3.14,3.14,0,0,0,8,110a3,3,0,0,0-1.14,1.16,3.1,3.1,0,0,0-.41,1.57h-2a5.06,5.06,0,0,1,.67-2.58A4.69,4.69,0,0,1,7,108.36a5.44,5.44,0,0,1,2.65-.64,5.11,5.11,0,0,1,2.58.66A4.94,4.94,0,0,1,14,110.19a5.07,5.07,0,0,1,.67,2.56,4.74,4.74,0,0,1-.54,2.38,9,9,0,0,1-1.84,2.1Z"/><path class="cls-5" d="M19.82,123.21a4.9,4.9,0,0,1-1.88-1.87,5.38,5.38,0,0,1-.68-2.69V113a5.37,5.37,0,0,1,.68-2.68,4.92,4.92,0,0,1,1.88-1.88,5.64,5.64,0,0,1,5.37,0,4.83,4.83,0,0,1,1.87,1.88,5.26,5.26,0,0,1,.68,2.68v5.69a5.27,5.27,0,0,1-.68,2.69,4.8,4.8,0,0,1-1.87,1.87,5.64,5.64,0,0,1-5.37,0Zm4.34-1.61a3.29,3.29,0,0,0,1.2-1.2,3.22,3.22,0,0,0,.44-1.64v-5.93a3.25,3.25,0,0,0-.44-1.64,3.19,3.19,0,0,0-1.2-1.19,3.31,3.31,0,0,0-3.3,0,3.23,3.23,0,0,0-1.19,1.19,3.15,3.15,0,0,0-.44,1.64v5.93a3.13,3.13,0,0,0,.44,1.64,3.34,3.34,0,0,0,1.19,1.2,3.31,3.31,0,0,0,3.3,0Z"/><path class="cls-5" d="M7.5,206.19,4.56,208v-2.13l2.94-1.75H9.44V219.6H7.5Z"/><path class="cls-5" d="M21,210.26a4.87,4.87,0,0,1,1.82,1.84,5.14,5.14,0,0,1,.67,2.6,4.9,4.9,0,0,1-.73,2.61,5.36,5.36,0,0,1-2,1.91,5.25,5.25,0,0,1-2.65.7A5,5,0,0,1,15,218.84a5.23,5.23,0,0,1-1.86-2.78l1.86-.5a3.11,3.11,0,0,0,1.19,1.81,3.35,3.35,0,0,0,2,.67,3.31,3.31,0,0,0,2.9-1.67,3.21,3.21,0,0,0,.44-1.67,3.26,3.26,0,0,0-.45-1.69,3.37,3.37,0,0,0-1.22-1.21,3.33,3.33,0,0,0-1.67-.44,3.49,3.49,0,0,0-1.71.41,3.43,3.43,0,0,0-1.2,1.06l-1.7-.65.47-8.11H22.4v1.81H15.8l-.3,4.73a4.68,4.68,0,0,1,1.35-.75,4.61,4.61,0,0,1,1.56-.27A5.1,5.1,0,0,1,21,210.26Z"/><path class="cls-5" d="M7.5,297.25,4.56,299v-2.14l2.94-1.74H9.44v15.52H7.5Z"/><path class="cls-5" d="M16.09,310.31a5,5,0,0,1-1.88-1.88,5.37,5.37,0,0,1-.68-2.68v-5.7a5.37,5.37,0,0,1,.68-2.68,5,5,0,0,1,1.88-1.88,5.64,5.64,0,0,1,5.37,0,4.9,4.9,0,0,1,1.87,1.88,5.26,5.26,0,0,1,.68,2.68v5.7a5.26,5.26,0,0,1-.68,2.68,4.9,4.9,0,0,1-1.87,1.88,5.64,5.64,0,0,1-5.37,0Zm4.34-1.62a3.29,3.29,0,0,0,1.2-1.2,3.22,3.22,0,0,0,.44-1.64v-5.93a3.28,3.28,0,0,0-1.64-2.83,3.31,3.31,0,0,0-3.3,0,3.19,3.19,0,0,0-1.19,1.2,3.12,3.12,0,0,0-.44,1.63v5.93a3.13,3.13,0,0,0,.44,1.64,3.29,3.29,0,0,0,4.49,1.2Z"/><path class="cls-5" d="M23.68,395.51a4.9,4.9,0,0,1,1.82,1.85,5.08,5.08,0,0,1,.67,2.59,5,5,0,0,1-.73,2.61,5.39,5.39,0,0,1-2,1.91,5.23,5.23,0,0,1-2.65.7,5,5,0,0,1-3.17-1.08,5.16,5.16,0,0,1-1.85-2.78l1.85-.49a3.19,3.19,0,0,0,1.2,1.8,3.36,3.36,0,0,0,2,.68,3.2,3.2,0,0,0,1.69-.46,3.37,3.37,0,0,0,1.2-4.58,3.45,3.45,0,0,0-1.22-1.21,3.33,3.33,0,0,0-1.67-.44,3.56,3.56,0,0,0-1.72.41,3.62,3.62,0,0,0-1.2,1.06l-1.7-.65.48-8.11h8.34v1.81h-6.6l-.3,4.73a4.74,4.74,0,0,1,1.36-.75,4.56,4.56,0,0,1,1.55-.27A5.11,5.11,0,0,1,23.68,395.51Z"/><path class="cls-5" d="M18.78,493.8a5,5,0,0,1-1.87-1.88,5.26,5.26,0,0,1-.68-2.68v-5.7a5.26,5.26,0,0,1,.68-2.68A5,5,0,0,1,18.78,479a5.64,5.64,0,0,1,5.37,0A4.92,4.92,0,0,1,26,480.86a5.37,5.37,0,0,1,.68,2.68v5.7a5.37,5.37,0,0,1-.68,2.68,4.92,4.92,0,0,1-1.88,1.88,5.64,5.64,0,0,1-5.37,0Zm4.35-1.62a3.26,3.26,0,0,0,1.19-1.2,3.14,3.14,0,0,0,.45-1.64v-5.93a3.1,3.1,0,0,0-.45-1.63,3.25,3.25,0,0,0-2.85-1.64,3.13,3.13,0,0,0-1.64.44,3.29,3.29,0,0,0-1.2,1.2,3.19,3.19,0,0,0-.44,1.63v5.93a3.22,3.22,0,0,0,.44,1.64,3.37,3.37,0,0,0,1.2,1.2,3.22,3.22,0,0,0,1.64.44A3.3,3.3,0,0,0,23.13,492.18Z"/><line class="cls-2" x1="462.94" y1="198.95" x2="462.94" y2="285.86"/><polyline class="cls-2" points="453.48 276.34 462.79 285.65 472.39 276.05"/><path class="cls-5" d="M367.56,171.65h1.92v15.53h-1.92Z"/><path class="cls-5" d="M381.1,176.1a4.57,4.57,0,0,1,1.45,2.1,8.11,8.11,0,0,1,.4,2.53v6.45H381v-5.84a5.89,5.89,0,0,0-.73-3.09,2.63,2.63,0,0,0-2.44-1.2,2.85,2.85,0,0,0-2.33,1,4.5,4.5,0,0,0-.86,3v6.15h-1.94V175.54h1.73V177a4.33,4.33,0,0,1,1.64-1.32,5.22,5.22,0,0,1,2.24-.47A4.19,4.19,0,0,1,381.1,176.1Z"/><path class="cls-5" d="M386,171.37h1.92v2H386Zm0,4.17h1.92v11.64H386Z"/><path class="cls-5" d="M393.06,186.72a5.11,5.11,0,0,1-1.9-2.18,7.84,7.84,0,0,1,0-6.41,5.08,5.08,0,0,1,1.92-2.15,5.56,5.56,0,0,1,3-.77,5.4,5.4,0,0,1,3.16.91,4.4,4.4,0,0,1,1.8,2.48l-1.89.56a3.24,3.24,0,0,0-1.2-1.56A3.18,3.18,0,0,0,396,177a3.08,3.08,0,0,0-2.61,1.18,6,6,0,0,0,0,6.32,3.1,3.1,0,0,0,2.6,1.15,3,3,0,0,0,3-2l1.94.5a4.93,4.93,0,0,1-1.89,2.5,5.41,5.41,0,0,1-3.09.86A5.47,5.47,0,0,1,393.06,186.72Z"/><path class="cls-5" d="M403.11,171.37H405v2h-1.92Zm0,4.17H405v11.64h-1.92Z"/><path class="cls-5" d="M410.25,186.73a5.1,5.1,0,0,1-1.95-2.18,7.35,7.35,0,0,1-.68-3.21,7.15,7.15,0,0,1,.69-3.21,5.1,5.1,0,0,1,2-2.15,5.65,5.65,0,0,1,3-.77,5.57,5.57,0,0,1,3,.78,5.16,5.16,0,0,1,2,2.17,7.87,7.87,0,0,1,0,6.4,5.16,5.16,0,0,1-2,2.17,6.13,6.13,0,0,1-5.95,0Zm5.65-2.24a5,5,0,0,0,.91-3.15,5,5,0,0,0-.92-3.16,3.2,3.2,0,0,0-2.66-1.16,3.16,3.16,0,0,0-2.67,1.17,5.06,5.06,0,0,0-.89,3.15,4.93,4.93,0,0,0,.92,3.18,3.61,3.61,0,0,0,5.31,0Z"/><path class="cls-5" d="M428.54,182.69v.69a5,5,0,0,0,0,.85,2.17,2.17,0,0,0,.18.56,2,2,0,0,0,1.9.86,7.63,7.63,0,0,0,1.38-.13v1.66a7.89,7.89,0,0,1-1.75.19,5,5,0,0,1-2-.38,2.56,2.56,0,0,1-1.28-1.21,3.53,3.53,0,0,1-.32-1,8.84,8.84,0,0,1-.07-1.24v-6.43h-2.37v-1.57h2.37V172.3h1.92v3.24h3.51v1.57h-3.51Z"/><path class="cls-5" d="M443.76,180v7.2h-1.7v-1.83a4.81,4.81,0,0,1-4.32,2.15,4.64,4.64,0,0,1-2.15-.46,3.15,3.15,0,0,1-1.36-1.26,3.51,3.51,0,0,1-.45-1.75c0-1.72,1-2.87,2.86-3.43a35.23,35.23,0,0,1,4.42-.75l.8-.11a2.93,2.93,0,0,0-.71-2.08A3,3,0,0,0,439,177a3.41,3.41,0,0,0-1.87.5A2.58,2.58,0,0,0,436,179l-1.83-.54a4.15,4.15,0,0,1,1.65-2.43,5.44,5.44,0,0,1,3.16-.85,6,6,0,0,1,2.73.57,3.43,3.43,0,0,1,1.62,1.7A6.37,6.37,0,0,1,443.76,180Zm-3.29,5.14a3.17,3.17,0,0,0,1.18-1.91,6.6,6.6,0,0,0,.19-1.85l-1,.15c-.62.09-1.23.17-1.84.27a11.67,11.67,0,0,0-1.48.31c-1.21.37-1.82,1-1.82,1.92a1.76,1.76,0,0,0,.59,1.34,2.47,2.47,0,0,0,1.74.54A3.8,3.8,0,0,0,440.47,185.12Z"/><path class="cls-5" d="M447.54,186.59a3.88,3.88,0,0,1-1.63-2.56l2-.32a2.44,2.44,0,0,0,1.1,1.51,3.81,3.81,0,0,0,2.11.56,3.09,3.09,0,0,0,1.86-.5,1.57,1.57,0,0,0,.68-1.36,1.27,1.27,0,0,0-.22-.8,2,2,0,0,0-.9-.55,21,21,0,0,0-2.15-.67,13.52,13.52,0,0,1-2.45-.85,3.23,3.23,0,0,1-1.25-1,2.51,2.51,0,0,1-.38-1.41,3,3,0,0,1,1.23-2.47,5.26,5.26,0,0,1,3.26-.94,5.65,5.65,0,0,1,3.31.94,3.38,3.38,0,0,1,1.49,2.47l-2,.34a2.11,2.11,0,0,0-.95-1.49,3.48,3.48,0,0,0-2-.55,3.12,3.12,0,0,0-1.74.43,1.32,1.32,0,0,0-.66,1.16,1.08,1.08,0,0,0,.27.75,2.71,2.71,0,0,0,1,.56,18.41,18.41,0,0,0,2.09.61,11.91,11.91,0,0,1,2.44.84,3,3,0,0,1,1.26,1.07,2.9,2.9,0,0,1,.38,1.54,3.19,3.19,0,0,1-1.24,2.65,5.41,5.41,0,0,1-3.42,1A5.92,5.92,0,0,1,447.54,186.59Z"/><path class="cls-5" d="M467.35,180v7.2h-1.71v-1.83a4.79,4.79,0,0,1-4.31,2.15,4.71,4.71,0,0,1-2.16-.46,3.18,3.18,0,0,1-1.35-1.26,3.42,3.42,0,0,1-.46-1.75c0-1.72,1-2.87,2.87-3.43a35.23,35.23,0,0,1,4.42-.75l.8-.11a2.45,2.45,0,0,0-2.87-2.74,3.39,3.39,0,0,0-1.87.5,2.58,2.58,0,0,0-1.08,1.53l-1.83-.54a4.18,4.18,0,0,1,1.64-2.43,5.48,5.48,0,0,1,3.16-.85,6,6,0,0,1,2.74.57,3.43,3.43,0,0,1,1.62,1.7A6.37,6.37,0,0,1,467.35,180Zm-3.29,5.14a3.11,3.11,0,0,0,1.17-1.91,6.53,6.53,0,0,0,.2-1.85l-1,.15-1.83.27a12.27,12.27,0,0,0-1.49.31c-1.2.37-1.81,1-1.81,1.92a1.76,1.76,0,0,0,.59,1.34,2.47,2.47,0,0,0,1.74.54A3.82,3.82,0,0,0,464.06,185.12Z"/><path class="cls-5" d="M477.46,182.69v.69a6.36,6.36,0,0,0,.05.85,1.85,1.85,0,0,0,.19.56,2,2,0,0,0,1.89.86,7.47,7.47,0,0,0,1.38-.13v1.66a7.8,7.8,0,0,1-1.74.19,5.09,5.09,0,0,1-2-.38,2.56,2.56,0,0,1-1.28-1.21,3.5,3.5,0,0,1-.31-1,8.69,8.69,0,0,1-.08-1.24v-6.43h-2.37v-1.57h2.37V172.3h1.92v3.24H481v1.57h-3.51Z"/><path class="cls-5" d="M493.37,175.54v11.64h-1.72v-1.49A4.26,4.26,0,0,1,490,187a5.22,5.22,0,0,1-2.24.46,4.25,4.25,0,0,1-2.79-.86,4.55,4.55,0,0,1-1.44-2.11,8.29,8.29,0,0,1-.41-2.55v-6.42h1.94v5.82a5.83,5.83,0,0,0,.73,3.08,2.62,2.62,0,0,0,2.44,1.21,2.91,2.91,0,0,0,2.34-1,4.53,4.53,0,0,0,.85-3v-6.12Z"/><path class="cls-5" d="M500.23,175.65a4.53,4.53,0,0,1,1.31-.2,3.52,3.52,0,0,1,.87.09v1.79a3.61,3.61,0,0,0-.89-.11,2.83,2.83,0,0,0-1.79.56c-.93.66-1.4,1.85-1.4,3.56v5.84h-1.94V175.54h1.73v1.83a3.25,3.25,0,0,1,1-1.12A3.34,3.34,0,0,1,500.23,175.65Z"/><path class="cls-5" d="M502.75,172.69l5.2-2.05.54,1.45-5.18,2Zm3.84,2.85v11.64h-1.92V175.54Z"/><path class="cls-5" d="M510.8,186.59a3.84,3.84,0,0,1-1.62-2.56l2-.32a2.48,2.48,0,0,0,1.1,1.51,3.81,3.81,0,0,0,2.11.56,3.14,3.14,0,0,0,1.87-.5,1.59,1.59,0,0,0,.68-1.36,1.27,1.27,0,0,0-.23-.8,2,2,0,0,0-.9-.55,21,21,0,0,0-2.15-.67,13.52,13.52,0,0,1-2.45-.85,3.23,3.23,0,0,1-1.25-1,2.51,2.51,0,0,1-.38-1.41,3,3,0,0,1,1.23-2.47,5.28,5.28,0,0,1,3.26-.94,5.65,5.65,0,0,1,3.31.94,3.43,3.43,0,0,1,1.5,2.47l-2,.34a2.13,2.13,0,0,0-.94-1.49,3.54,3.54,0,0,0-2-.55,3.12,3.12,0,0,0-1.74.43,1.32,1.32,0,0,0-.66,1.16,1.08,1.08,0,0,0,.27.75,2.71,2.71,0,0,0,1,.56,18.41,18.41,0,0,0,2.09.61,11.91,11.91,0,0,1,2.44.84,3,3,0,0,1,1.26,1.07,2.9,2.9,0,0,1,.38,1.54,3.17,3.17,0,0,1-1.24,2.65,5.41,5.41,0,0,1-3.42,1A5.92,5.92,0,0,1,510.8,186.59Z"/><path class="cls-5" d="M524.27,182.69v.69a6.36,6.36,0,0,0,.05.85,1.85,1.85,0,0,0,.19.56,2,2,0,0,0,1.89.86,7.47,7.47,0,0,0,1.38-.13v1.66a7.8,7.8,0,0,1-1.74.19,5.09,5.09,0,0,1-2-.38,2.56,2.56,0,0,1-1.28-1.21,3.5,3.5,0,0,1-.31-1,8.69,8.69,0,0,1-.08-1.24v-6.43H520v-1.57h2.37V172.3h1.92v3.24h3.51v1.57h-3.51Z"/><path class="cls-5" d="M530.37,171.37h1.92v2h-1.92Zm0,4.17h1.92v11.64h-1.92Z"/><path class="cls-5" d="M537.45,186.72a5.16,5.16,0,0,1-1.89-2.18,7.84,7.84,0,0,1,0-6.41,5,5,0,0,1,1.92-2.15,5.56,5.56,0,0,1,3-.77,5.42,5.42,0,0,1,3.16.91,4.45,4.45,0,0,1,1.8,2.48l-1.9.56a3.16,3.16,0,0,0-1.19-1.56,3.23,3.23,0,0,0-1.89-.58,3.08,3.08,0,0,0-2.61,1.18,6,6,0,0,0,0,6.32,3.09,3.09,0,0,0,2.6,1.15,3,3,0,0,0,3-2l1.94.5a4.9,4.9,0,0,1-1.9,2.5,5.38,5.38,0,0,1-3.08.86A5.53,5.53,0,0,1,537.45,186.72Z"/><path class="cls-5" d="M556.85,180v7.2h-1.7v-1.83a4.81,4.81,0,0,1-4.32,2.15,4.64,4.64,0,0,1-2.15-.46,3.15,3.15,0,0,1-1.36-1.26,3.51,3.51,0,0,1-.45-1.75c0-1.72,1-2.87,2.86-3.43a35.23,35.23,0,0,1,4.42-.75l.8-.11a2.93,2.93,0,0,0-.71-2.08,3,3,0,0,0-2.16-.66,3.41,3.41,0,0,0-1.87.5,2.58,2.58,0,0,0-1.08,1.53l-1.83-.54a4.15,4.15,0,0,1,1.65-2.43,5.44,5.44,0,0,1,3.16-.85,6,6,0,0,1,2.73.57,3.43,3.43,0,0,1,1.62,1.7A6.37,6.37,0,0,1,556.85,180Zm-3.29,5.14a3.17,3.17,0,0,0,1.18-1.91,6.6,6.6,0,0,0,.19-1.85l-1,.15c-.62.09-1.23.17-1.84.27a11.67,11.67,0,0,0-1.48.31c-1.21.37-1.81,1-1.81,1.92a1.75,1.75,0,0,0,.58,1.34,2.48,2.48,0,0,0,1.74.54A3.8,3.8,0,0,0,553.56,185.12Z"/><rect class="cls-6" x="632.18" y="23.91" width="42.84" height="462.23"/><path class="cls-5" d="M659,158.83a6.42,6.42,0,0,1-2.85,2.49,10.93,10.93,0,0,1-8.45,0,6.45,6.45,0,0,1-2.84-2.49,7.22,7.22,0,0,1-1-3.9,7.08,7.08,0,0,1,1.34-4.41,6.87,6.87,0,0,1,3.71-2.43l.52,1.94a5.12,5.12,0,0,0-2.75,1.74,4.91,4.91,0,0,0-1,3.16,4.65,4.65,0,0,0,1.68,3.87,7.33,7.33,0,0,0,4.57,1.35,7.05,7.05,0,0,0,4.56-1.33,4.68,4.68,0,0,0,1.69-3.89,5,5,0,0,0-1-3.16,5.14,5.14,0,0,0-2.77-1.74l.52-1.94a6.65,6.65,0,0,1,5.06,6.84A7.22,7.22,0,0,1,659,158.83Z"/><path class="cls-5" d="M659.22,143.74a5.1,5.1,0,0,1-2.18,1.95,7.32,7.32,0,0,1-3.21.68,7.08,7.08,0,0,1-3.2-.69,5.14,5.14,0,0,1-2.16-2,6.12,6.12,0,0,1,0-6,5.2,5.2,0,0,1,2.17-1.95,7.82,7.82,0,0,1,6.4,0,5.18,5.18,0,0,1,2.17,2,6.13,6.13,0,0,1,0,6ZM657,138.09a5,5,0,0,0-3.16-.91,5,5,0,0,0-3.16.92,3.2,3.2,0,0,0-1.16,2.66,3.13,3.13,0,0,0,1.17,2.66,6,6,0,0,0,6.33,0,3.62,3.62,0,0,0,0-5.31Z"/><path class="cls-5" d="M648.15,128.92a4.22,4.22,0,0,1-.21-1.31,3.43,3.43,0,0,1,.09-.86h1.79a4.07,4.07,0,0,0-.11.88,2.89,2.89,0,0,0,.56,1.79c.66.93,1.85,1.4,3.56,1.4h5.84v1.94H648V131h1.83a3.46,3.46,0,0,1-1.12-1A3.2,3.2,0,0,1,648.15,128.92Z"/><path class="cls-5" d="M659.22,122.93a5.1,5.1,0,0,1-2.18,1.95,7.32,7.32,0,0,1-3.21.68,7.08,7.08,0,0,1-3.2-.69,5.07,5.07,0,0,1-2.16-2,6.1,6.1,0,0,1,0-6,5.07,5.07,0,0,1,2.17-1.95,7,7,0,0,1,3.18-.68,7.16,7.16,0,0,1,3.22.69,5.16,5.16,0,0,1,2.17,2,6.13,6.13,0,0,1,0,6ZM657,117.28a5.09,5.09,0,0,0-3.16-.9,5,5,0,0,0-3.16.91,3.2,3.2,0,0,0-1.16,2.66,3.16,3.16,0,0,0,1.17,2.67,5.08,5.08,0,0,0,3.15.89,5,5,0,0,0,3.18-.91,3.63,3.63,0,0,0,0-5.32Z"/><path class="cls-5" d="M648.59,103.57a4.57,4.57,0,0,1,2.1-1.45,8.12,8.12,0,0,1,2.53-.41h6.45v1.94h-5.84a5.89,5.89,0,0,0-3.09.74,2.63,2.63,0,0,0-1.2,2.43,2.88,2.88,0,0,0,1,2.34,4.53,4.53,0,0,0,3,.85h6.14V112H648v-1.72h1.48a4.33,4.33,0,0,1-1.32-1.64,5.22,5.22,0,0,1-.46-2.24A4.17,4.17,0,0,1,648.59,103.57Z"/><path class="cls-5" d="M652.47,89.57h7.2v1.71h-1.83A4.77,4.77,0,0,1,660,95.59a4.71,4.71,0,0,1-.46,2.16,3.18,3.18,0,0,1-1.26,1.35,3.39,3.39,0,0,1-1.75.46c-1.72,0-2.87-1-3.43-2.87a37.2,37.2,0,0,1-.75-4.42l-.11-.8a2.45,2.45,0,0,0-2.74,2.87,3.39,3.39,0,0,0,.5,1.87,2.58,2.58,0,0,0,1.53,1.08L651,99.13a4.18,4.18,0,0,1-2.42-1.65,5.41,5.41,0,0,1-.86-3.16,5.87,5.87,0,0,1,.58-2.74A3.37,3.37,0,0,1,650,90,6.37,6.37,0,0,1,652.47,89.57Zm5.14,3.29a3.08,3.08,0,0,0-1.91-1.17,6.53,6.53,0,0,0-1.85-.2q.09.63.15,1l.27,1.83a12.27,12.27,0,0,0,.31,1.49c.38,1.2,1,1.81,1.92,1.81a1.79,1.79,0,0,0,1.34-.58,2.49,2.49,0,0,0,.54-1.75A3.82,3.82,0,0,0,657.61,92.86Z"/><path class="cls-5" d="M648,88.28V86.34l9.18-3.28L648,79.81V77.87l11.64,4.22v2Z"/><path class="cls-5" d="M643.87,75.71V73.79h2v1.92Zm4.16,0V73.79h11.64v1.92Z"/><path class="cls-5" d="M648.15,66.72a4.24,4.24,0,0,1-.21-1.32,3.49,3.49,0,0,1,.09-.86h1.79a4.15,4.15,0,0,0-.11.88,2.85,2.85,0,0,0,.56,1.79c.66.94,1.85,1.41,3.56,1.41h5.84v1.94H648V68.83h1.83a3.46,3.46,0,0,1-1.12-1A3.24,3.24,0,0,1,648.15,66.72Z"/><path class="cls-5" d="M648,52.47h11.64v1.72h-1.49a4.26,4.26,0,0,1,1.33,1.64,5.22,5.22,0,0,1,.46,2.24,4.22,4.22,0,0,1-.86,2.78A4.52,4.52,0,0,1,657,62.3a8.25,8.25,0,0,1-2.55.41H648V60.77h5.82a5.83,5.83,0,0,0,3.08-.74,2.6,2.6,0,0,0,1.21-2.43,2.91,2.91,0,0,0-1-2.34,4.53,4.53,0,0,0-3-.85H648Z"/><path class="cls-5" d="M659.08,48.47a3.81,3.81,0,0,1-2.56,1.62l-.32-2a2.48,2.48,0,0,0,1.51-1.1,3.81,3.81,0,0,0,.56-2.11,3.14,3.14,0,0,0-.5-1.87,1.59,1.59,0,0,0-1.36-.68,1.27,1.27,0,0,0-.8.23,2,2,0,0,0-.55.9,21,21,0,0,0-.67,2.15,13.52,13.52,0,0,1-.85,2.45,3.23,3.23,0,0,1-1,1.25,2.51,2.51,0,0,1-1.41.38,3,3,0,0,1-2.47-1.23,5.28,5.28,0,0,1-.94-3.26,5.65,5.65,0,0,1,.94-3.31,3.43,3.43,0,0,1,2.47-1.5l.35,2a2.11,2.11,0,0,0-1.5,1,3.48,3.48,0,0,0-.55,2,3.12,3.12,0,0,0,.43,1.74,1.32,1.32,0,0,0,1.16.66,1.08,1.08,0,0,0,.75-.27,2.71,2.71,0,0,0,.56-1,18.41,18.41,0,0,0,.61-2.09,11.91,11.91,0,0,1,.84-2.44,3,3,0,0,1,1.07-1.26,2.9,2.9,0,0,1,1.54-.38A3.17,3.17,0,0,1,659,41.63a5.41,5.41,0,0,1,1,3.42A5.92,5.92,0,0,1,659.08,48.47Z"/><circle class="cls-5" cx="89.23" cy="337.26" r="5.71"/><circle class="cls-5" cx="131.03" cy="339.71" r="5.71"/><circle class="cls-5" cx="172.95" cy="355.48" r="5.71"/><circle class="cls-5" cx="214.61" cy="351.13" r="5.71"/><circle class="cls-5" cx="47.84" cy="331.55" r="5.71"/><circle class="cls-5" cx="256.29" cy="331.55" r="5.71"/><circle class="cls-5" cx="298.19" cy="331.55" r="5.71"/><circle class="cls-5" cx="380.11" cy="331.55" r="5.71"/><circle class="cls-5" cx="422.37" cy="324.51" r="5.71"/><circle class="cls-5" cx="462.94" cy="301.89" r="5.71"/><circle class="cls-5" cx="504.61" cy="301.89" r="5.71"/><circle class="cls-5" cx="547.77" cy="296.19" r="5.71"/><circle class="cls-5" cx="588.1" cy="290.48" r="5.71"/><circle class="cls-5" cx="630.92" cy="460.87" r="5.71"/><circle class="cls-5" cx="672.94" cy="410.56" r="5.71"/><circle class="cls-5" cx="339.15" cy="331.55" r="5.71"/></g></svg>