<svg xmlns="http://www.w3.org/2000/svg" viewBox="0 0 683 532"><defs><style>.cls-1,.cls-2{fill:none;}.cls-1,.cls-2,.cls-3,.cls-4{stroke:#fff;stroke-miterlimit:10;}.cls-2{stroke-width:2px;}.cls-12,.cls-3,.cls-4,.cls-5,.cls-9{fill:#fff;}.cls-4{opacity:0.7;}.cls-5{font-size:21.56px;font-family:Manrope-Medium, Manrope;font-weight:500;}.cls-6{letter-spacing:-0.02em;}.cls-7{letter-spacing:-0.02em;}.cls-8{letter-spacing:0em;}.cls-9{opacity:0.2;}.cls-10{letter-spacing:-0.01em;}.cls-11{letter-spacing:0em;}</style></defs><g id="Capa_4" data-name="Capa 4"><line class="cls-1" x1="675.02" y1="486.14" x2="36.55" y2="486.14"/><polyline class="cls-2" points="47.84 331.18 88.41 337.83 130.31 337.83 172.87 356.84 214.77 351.13 256.67 331.18 298.57 331.18 339.81 331.18 379.71 331.18 422.94 325.19 462.18 301.25 504.75 301.25 547.98 295.93 587.88 291.27 630.45 460.87 674.34 409.66"/><line class="cls-3" x1="48.52" y1="5.95" x2="48.52" y2="502.1"/><line class="cls-4" x1="675.02" y1="393.7" x2="36.55" y2="393.7"/><line class="cls-4" x1="675.02" y1="301.25" x2="36.55" y2="301.25"/><line class="cls-4" x1="675.02" y1="208.8" x2="36.55" y2="208.8"/><line class="cls-4" x1="675.02" y1="116.36" x2="36.55" y2="116.36"/><line class="cls-4" x1="675.02" y1="23.91" x2="36.55" y2="23.91"/><text class="cls-5" transform="translate(3.27 32.59)">25</text><text class="cls-5" transform="translate(27.2 524.17)">2006</text><text class="cls-5" transform="translate(187.33 524.5)">2010</text><text class="cls-5" transform="translate(359.43 524.5)">2014</text><text class="cls-5" transform="translate(523.85 524.5)">2018</text><text class="cls-5" transform="translate(608.51 524.5)">2020</text><text class="cls-5" transform="translate(3.27 123.57)">20</text><text class="cls-5" transform="translate(3.27 219.6)">15</text><text class="cls-5" transform="translate(3.27 310.66)">10</text><text class="cls-5" transform="translate(14.72 404.85)">5</text><text class="cls-5" transform="translate(14.72 494.15)">0</text><line class="cls-2" x1="462.94" y1="198.95" x2="462.94" y2="285.86"/><polyline class="cls-2" points="453.48 276.34 462.79 285.65 472.39 276.05"/><text class="cls-5" transform="translate(371.47 187.18)">Ini<tspan class="cls-6" x="23.78" y="0">c</tspan><tspan x="35.55" y="0">i ta</tspan><tspan class="cls-7" x="66.26" y="0">x</tspan><tspan x="77.38" y="0">a turísti</tspan><tspan class="cls-8" x="154.9" y="0">c</tspan><tspan x="166.89" y="0">a</tspan></text><rect class="cls-9" x="632.18" y="23.91" width="42.84" height="462.23"/><text class="cls-5" transform="translate(659.67 162.82) rotate(-90)">Co<tspan class="cls-10" x="28.55" y="0">r</tspan><tspan x="36.4" y="0">on</tspan><tspan class="cls-7" x="62.4" y="0">a</tspan><tspan class="cls-11" x="74.11" y="0">virus</tspan></text><circle class="cls-12" cx="89.23" cy="337.26" r="5.71"/><circle class="cls-12" cx="131.03" cy="339.71" r="5.71"/><circle class="cls-12" cx="172.95" cy="355.48" r="5.71"/><circle class="cls-12" cx="214.61" cy="351.13" r="5.71"/><circle class="cls-12" cx="47.84" cy="331.55" r="5.71"/><circle class="cls-12" cx="256.29" cy="331.55" r="5.71"/><circle class="cls-12" cx="298.19" cy="331.55" r="5.71"/><circle class="cls-12" cx="380.11" cy="331.55" r="5.71"/><circle class="cls-12" cx="422.37" cy="324.51" r="5.71"/><circle class="cls-12" cx="462.94" cy="301.89" r="5.71"/><circle class="cls-12" cx="504.61" cy="301.89" r="5.71"/><circle class="cls-12" cx="547.77" cy="296.19" r="5.71"/><circle class="cls-12" cx="588.1" cy="290.48" r="5.71"/><circle class="cls-12" cx="630.92" cy="460.87" r="5.71"/><circle class="cls-12" cx="672.94" cy="410.56" r="5.71"/><circle class="cls-12" cx="339.15" cy="331.55" r="5.71"/></g></svg>