<svg xmlns="http://www.w3.org/2000/svg" viewBox="0 0 683 532"><defs><style>.cls-1,.cls-3,.cls-4,.cls-6,.cls-9{fill:#fff;}.cls-1,.cls-2,.cls-3,.cls-5{stroke:#fff;stroke-miterlimit:10;}.cls-2,.cls-5{fill:none;}.cls-3{opacity:0.7;}.cls-4{font-size:21.56px;font-family:Manrope-Medium, Manrope;font-weight:500;}.cls-5{stroke-width:2px;}.cls-7{letter-spacing:-0.02em;}.cls-8{letter-spacing:0em;}.cls-9{opacity:0.2;}.cls-10{letter-spacing:-0.01em;}.cls-11{letter-spacing:-0.02em;}.cls-12{letter-spacing:0em;}</style></defs><g id="Capa_4" data-name="Capa 4"><line class="cls-1" x1="52.3" y1="5.95" x2="52.3" y2="502.1"/><line class="cls-2" x1="678.81" y1="486.14" x2="40.33" y2="486.14"/><line class="cls-3" x1="678.81" y1="393.7" x2="40.33" y2="393.7"/><line class="cls-3" x1="678.81" y1="301.25" x2="40.33" y2="301.25"/><line class="cls-3" x1="678.81" y1="208.8" x2="40.33" y2="208.8"/><line class="cls-3" x1="678.81" y1="116.36" x2="40.33" y2="116.36"/><line class="cls-3" x1="678.81" y1="23.91" x2="40.33" y2="23.91"/><text class="cls-4" transform="translate(7.05 32.59)">25</text><text class="cls-4" transform="translate(30.99 524.17)">2006</text><text class="cls-4" transform="translate(191.11 524.5)">2010</text><text class="cls-4" transform="translate(363.21 524.5)">2014</text><text class="cls-4" transform="translate(527.63 524.5)">2018</text><text class="cls-4" transform="translate(612.29 524.5)">2020</text><text class="cls-4" transform="translate(7.05 123.57)">20</text><text class="cls-4" transform="translate(7.05 219.6)">15</text><text class="cls-4" transform="translate(7.05 310.66)">10</text><text class="cls-4" transform="translate(18.5 404.85)">5</text><text class="cls-4" transform="translate(18.5 494.15)">0</text><polyline class="cls-5" points="52.3 223.44 92.87 219.92 134.1 221.68 178.66 228.75 217.24 228.75 259.81 184.19 303.7 188.85 344.94 188.19 384.18 174.22 425.41 161.58 467.98 135.64 513.2 123.57 552.44 116.36 592.35 102.39 634.91 378.4 675.48 351.8"/><circle class="cls-6" cx="53.99" cy="225.12" r="5.71"/><circle class="cls-6" cx="136.32" cy="222.05" r="5.71"/><circle class="cls-6" cx="217.46" cy="227.76" r="5.71"/><circle class="cls-6" cx="261.03" cy="185.53" r="5.71"/><circle class="cls-6" cx="302.51" cy="188.85" r="5.71"/><circle class="cls-6" cx="343.99" cy="188.41" r="5.71"/><circle class="cls-6" cx="385.56" cy="174.11" r="5.71"/><circle class="cls-6" cx="425.97" cy="161.14" r="5.71"/><circle class="cls-6" cx="468.7" cy="136.2" r="5.71"/><circle class="cls-6" cx="512.43" cy="123.57" r="5.71"/><circle class="cls-6" cx="552.16" cy="116.36" r="5.71"/><circle class="cls-6" cx="591.9" cy="103.55" r="5.71"/><circle class="cls-6" cx="635.97" cy="377.4" r="5.71"/><circle class="cls-6" cx="676.87" cy="351.13" r="5.71"/><circle class="cls-6" cx="176.89" cy="228.76" r="5.71"/><circle class="cls-6" cx="93.23" cy="219.92" r="5.71"/><line class="cls-5" x1="302.6" y1="89.75" x2="302.6" y2="176.66"/><polyline class="cls-5" points="293.14 167.14 302.45 176.45 312.05 166.85"/><text class="cls-4" transform="translate(206.52 77.98)">Ini<tspan class="cls-7" x="23.78" y="0">c</tspan><tspan x="35.55" y="0">io tasa turísti</tspan><tspan class="cls-8" x="168.18" y="0">c</tspan><tspan x="180.17" y="0">a</tspan></text><rect class="cls-9" x="635.97" y="23.91" width="42.84" height="462.23"/><text class="cls-4" transform="translate(663.75 164.14) rotate(-90)">Co<tspan class="cls-10" x="28.55" y="0">r</tspan><tspan x="36.4" y="0">on</tspan><tspan class="cls-11" x="62.4" y="0">a</tspan><tspan class="cls-12" x="74.11" y="0">virus</tspan></text></g></svg>