<svg xmlns="http://www.w3.org/2000/svg" viewBox="0 0 683 532"><defs><style>.cls-1,.cls-3,.cls-4,.cls-6{fill:#fff;}.cls-1,.cls-2,.cls-3,.cls-5{stroke:#fff;stroke-miterlimit:10;}.cls-2,.cls-5{fill:none;}.cls-3{opacity:0.7;}.cls-5{stroke-width:2px;}.cls-6{opacity:0.2;}</style></defs><g id="Capa_4" data-name="Capa 4"><line class="cls-1" x1="52.3" y1="5.95" x2="52.3" y2="502.1"/><line class="cls-2" x1="678.81" y1="486.14" x2="40.33" y2="486.14"/><line class="cls-3" x1="678.81" y1="393.7" x2="40.33" y2="393.7"/><line class="cls-3" x1="678.81" y1="301.25" x2="40.33" y2="301.25"/><line class="cls-3" x1="678.81" y1="208.8" x2="40.33" y2="208.8"/><line class="cls-3" x1="678.81" y1="116.36" x2="40.33" y2="116.36"/><line class="cls-3" x1="678.81" y1="23.91" x2="40.33" y2="23.91"/><path class="cls-4" d="M11.08,30.73h7.38v1.84H8.13l0-1.73L15,24.65a4.49,4.49,0,0,0,1.14-1.42,3.42,3.42,0,0,0,.33-1.49,3.2,3.2,0,0,0-.41-1.6,3,3,0,0,0-2.72-1.57,3.26,3.26,0,0,0-1.64.43,3,3,0,0,0-1.14,1.17,3.1,3.1,0,0,0-.41,1.57h-2a5.05,5.05,0,0,1,.66-2.58,4.62,4.62,0,0,1,1.86-1.78,5.44,5.44,0,0,1,2.65-.64A5.11,5.11,0,0,1,16,17.4a4.86,4.86,0,0,1,1.82,1.81,5,5,0,0,1,.67,2.55,4.75,4.75,0,0,1-.54,2.39,9.43,9.43,0,0,1-1.83,2.1Z"/><path class="cls-4" d="M28.5,23.25a5,5,0,0,1,1.82,1.85A5.18,5.18,0,0,1,31,27.69a4.91,4.91,0,0,1-.74,2.61,5.36,5.36,0,0,1-2,1.91,5.23,5.23,0,0,1-2.65.7,5,5,0,0,1-3.17-1.08,5.23,5.23,0,0,1-1.86-2.78l1.86-.49a3.14,3.14,0,0,0,1.2,1.8,3.35,3.35,0,0,0,2,.68,3.31,3.31,0,0,0,1.7-.46,3.38,3.38,0,0,0,1.65-2.89A3.3,3.3,0,0,0,28.59,26a3.37,3.37,0,0,0-1.22-1.21,3.31,3.31,0,0,0-1.67-.44,3.52,3.52,0,0,0-1.71.41,3.43,3.43,0,0,0-1.2,1.06l-1.7-.65.47-8.11h8.35v1.81h-6.6L23,23.6a4.61,4.61,0,0,1,1.36-.75,4.56,4.56,0,0,1,1.55-.27A5.11,5.11,0,0,1,28.5,23.25Z"/><path class="cls-4" d="M35,522.32h7.37v1.83H32.06l0-1.73L39,516.24a4.71,4.71,0,0,0,1.15-1.43,3.51,3.51,0,0,0,.32-1.48,3.24,3.24,0,0,0-.41-1.61,3.06,3.06,0,0,0-1.12-1.14,3.11,3.11,0,0,0-1.6-.42,3.16,3.16,0,0,0-1.64.43,3.1,3.1,0,0,0-1.14,1.16,3.24,3.24,0,0,0-.41,1.58h-2a5,5,0,0,1,.67-2.59A4.6,4.6,0,0,1,34.67,509a5.58,5.58,0,0,1,2.65-.64,5.11,5.11,0,0,1,2.58.66,4.79,4.79,0,0,1,1.82,1.81,5,5,0,0,1,.67,2.56,4.74,4.74,0,0,1-.54,2.38,9,9,0,0,1-1.83,2.1Z"/><path class="cls-4" d="M47.53,523.82a5,5,0,0,1-1.87-1.88,5.37,5.37,0,0,1-.68-2.68v-5.7a5.37,5.37,0,0,1,.68-2.68A5,5,0,0,1,47.53,509a5.4,5.4,0,0,1,2.69-.68,5.34,5.34,0,0,1,2.68.68,4.92,4.92,0,0,1,1.88,1.88,5.37,5.37,0,0,1,.68,2.68v5.7a5.37,5.37,0,0,1-.68,2.68,4.92,4.92,0,0,1-1.88,1.88,5.34,5.34,0,0,1-2.68.68A5.4,5.4,0,0,1,47.53,523.82Zm4.35-1.62a3.37,3.37,0,0,0,1.2-1.2,3.22,3.22,0,0,0,.44-1.64v-5.93a3.25,3.25,0,0,0-.44-1.64,3.34,3.34,0,0,0-1.2-1.19,3.17,3.17,0,0,0-1.66-.44,3.13,3.13,0,0,0-1.64.44,3.34,3.34,0,0,0-1.2,1.19,3.25,3.25,0,0,0-.44,1.64v5.93a3.22,3.22,0,0,0,.44,1.64,3.37,3.37,0,0,0,1.2,1.2,3.22,3.22,0,0,0,1.64.44A3.27,3.27,0,0,0,51.88,522.2Z"/><path class="cls-4" d="M61,523.82a4.9,4.9,0,0,1-1.87-1.88,5.26,5.26,0,0,1-.68-2.68v-5.7a5.26,5.26,0,0,1,.68-2.68A4.9,4.9,0,0,1,61,509a5.64,5.64,0,0,1,5.37,0,5,5,0,0,1,1.88,1.88,5.37,5.37,0,0,1,.68,2.68v5.7a5.37,5.37,0,0,1-.68,2.68,5,5,0,0,1-1.88,1.88,5.64,5.64,0,0,1-5.37,0Zm4.35-1.62a3.26,3.26,0,0,0,1.19-1.2,3.14,3.14,0,0,0,.45-1.64v-5.93a3.16,3.16,0,0,0-.45-1.64,3.23,3.23,0,0,0-1.19-1.19,3.2,3.2,0,0,0-1.66-.44,3.13,3.13,0,0,0-1.64.44,3.25,3.25,0,0,0-1.64,2.83v5.93a3.22,3.22,0,0,0,.44,1.64,3.29,3.29,0,0,0,1.2,1.2,3.22,3.22,0,0,0,1.64.44A3.3,3.3,0,0,0,65.38,522.2Z"/><path class="cls-4" d="M80.07,514.85a4.9,4.9,0,0,1,1.82,1.85,5.11,5.11,0,0,1,.67,2.6,5,5,0,0,1-.71,2.61,5.35,5.35,0,0,1-7.26,1.87,5,5,0,0,1-1.91-2A5.55,5.55,0,0,1,72,519v-5.15a5.8,5.8,0,0,1,.71-2.88,4.93,4.93,0,0,1,1.95-2,5.76,5.76,0,0,1,5.2-.19,5.06,5.06,0,0,1,1.87,1.5l-1.45,1.27A3.44,3.44,0,0,0,79,510.56a3.29,3.29,0,0,0-1.59-.4,3.5,3.5,0,0,0-3.51,3.51v2.09a5,5,0,0,1,1.61-1.17,4.67,4.67,0,0,1,1.94-.42A4.93,4.93,0,0,1,80.07,514.85ZM79,522.19A3.4,3.4,0,0,0,80.17,521a3.34,3.34,0,0,0,0-3.35A3.35,3.35,0,0,0,79,516.39a3.32,3.32,0,0,0-3.34,0,3.35,3.35,0,0,0-1.22,1.23,3.34,3.34,0,0,0,0,3.35,3.4,3.4,0,0,0,1.22,1.22,3.32,3.32,0,0,0,3.34,0Z"/><path class="cls-4" d="M195.14,522.64h7.38v1.83H192.19l0-1.72,6.88-6.19a4.49,4.49,0,0,0,1.14-1.42,3.42,3.42,0,0,0,.33-1.49,3.24,3.24,0,0,0-.41-1.61,3.21,3.21,0,0,0-4.36-1.13,3.18,3.18,0,0,0-1.55,2.74h-2a5.09,5.09,0,0,1,.66-2.59,4.75,4.75,0,0,1,1.86-1.78,5.55,5.55,0,0,1,2.65-.63,5.2,5.2,0,0,1,2.58.65,5,5,0,0,1,2.49,4.37,4.71,4.71,0,0,1-.54,2.38,9.23,9.23,0,0,1-1.83,2.11Z"/><path class="cls-4" d="M207.66,524.14a4.92,4.92,0,0,1-1.88-1.88,5.33,5.33,0,0,1-.67-2.68v-5.69a5.37,5.37,0,0,1,.67-2.69,4.9,4.9,0,0,1,1.88-1.87,5.64,5.64,0,0,1,5.37,0,4.9,4.9,0,0,1,1.88,1.87,5.37,5.37,0,0,1,.67,2.69v5.69a5.33,5.33,0,0,1-.67,2.68,4.92,4.92,0,0,1-1.88,1.88,5.64,5.64,0,0,1-5.37,0Zm4.35-1.62a3.23,3.23,0,0,0,1.19-1.19,3.15,3.15,0,0,0,.44-1.64v-5.93a3.13,3.13,0,0,0-.44-1.64,3.25,3.25,0,0,0-2.86-1.64,3.21,3.21,0,0,0-1.63.44,3.29,3.29,0,0,0-1.2,1.2,3.13,3.13,0,0,0-.44,1.64v5.93a3.15,3.15,0,0,0,.44,1.64,3.19,3.19,0,0,0,1.2,1.19,3.12,3.12,0,0,0,1.63.44A3.21,3.21,0,0,0,212,522.52Z"/><path class="cls-4" d="M221.32,511.08l-2.93,1.77v-2.13l2.93-1.75h1.94V524.5h-1.94Z"/><path class="cls-4" d="M229.91,524.14a4.83,4.83,0,0,1-1.87-1.88,5.24,5.24,0,0,1-.68-2.68v-5.69a5.27,5.27,0,0,1,.68-2.69,4.8,4.8,0,0,1,1.87-1.87,5.64,5.64,0,0,1,5.37,0,4.9,4.9,0,0,1,1.88,1.87,5.38,5.38,0,0,1,.68,2.69v5.69a5.34,5.34,0,0,1-.68,2.68,4.92,4.92,0,0,1-1.88,1.88,5.64,5.64,0,0,1-5.37,0Zm4.35-1.62a3.23,3.23,0,0,0,1.19-1.19,3.16,3.16,0,0,0,.45-1.64v-5.93a3.14,3.14,0,0,0-.45-1.64,3.34,3.34,0,0,0-1.19-1.2,3.3,3.3,0,0,0-1.66-.44,3.22,3.22,0,0,0-1.64.44,3.37,3.37,0,0,0-1.2,1.2,3.22,3.22,0,0,0-.44,1.64v5.93a3.25,3.25,0,0,0,1.64,2.83,3.13,3.13,0,0,0,1.64.44A3.2,3.2,0,0,0,234.26,522.52Z"/><path class="cls-4" d="M367.25,522.64h7.37v1.83H364.29l0-1.72,6.88-6.19a4.49,4.49,0,0,0,1.14-1.42,3.42,3.42,0,0,0,.33-1.49,3.24,3.24,0,0,0-.41-1.61,3.21,3.21,0,0,0-4.36-1.13,3,3,0,0,0-1.14,1.17,3.17,3.17,0,0,0-.41,1.57h-2a5,5,0,0,1,.67-2.59,4.66,4.66,0,0,1,1.85-1.78,5.55,5.55,0,0,1,2.65-.63,5.2,5.2,0,0,1,2.58.65,4.82,4.82,0,0,1,1.82,1.82,4.93,4.93,0,0,1,.67,2.55,4.71,4.71,0,0,1-.54,2.38,9.23,9.23,0,0,1-1.83,2.11Z"/><path class="cls-4" d="M379.76,524.14a4.83,4.83,0,0,1-1.87-1.88,5.24,5.24,0,0,1-.68-2.68v-5.69a5.27,5.27,0,0,1,.68-2.69,4.8,4.8,0,0,1,1.87-1.87,5.64,5.64,0,0,1,5.37,0A4.9,4.9,0,0,1,387,511.2a5.38,5.38,0,0,1,.68,2.69v5.69a5.34,5.34,0,0,1-.68,2.68,4.92,4.92,0,0,1-1.88,1.88,5.64,5.64,0,0,1-5.37,0Zm4.35-1.62a3.23,3.23,0,0,0,1.19-1.19,3.16,3.16,0,0,0,.45-1.64v-5.93a3.14,3.14,0,0,0-.45-1.64,3.34,3.34,0,0,0-1.19-1.2,3.3,3.3,0,0,0-1.66-.44,3.22,3.22,0,0,0-1.64.44,3.37,3.37,0,0,0-1.2,1.2,3.22,3.22,0,0,0-.44,1.64v5.93a3.25,3.25,0,0,0,1.64,2.83,3.13,3.13,0,0,0,1.64.44A3.2,3.2,0,0,0,384.11,522.52Z"/><path class="cls-4" d="M393.42,511.08l-2.93,1.77v-2.13l2.93-1.75h1.94V524.5h-1.94Z"/><path class="cls-4" d="M406.16,521.63H399v-1.81L404.16,509h2.18l-5.14,10.85h5v-4.38h1.94v4.38h1.62v1.81H408.1v2.87h-1.94Z"/><path class="cls-4" d="M531.67,522.64H539v1.83H528.71l0-1.72,6.88-6.19a4.49,4.49,0,0,0,1.14-1.42,3.42,3.42,0,0,0,.33-1.49,3.24,3.24,0,0,0-.41-1.61,3.21,3.21,0,0,0-4.36-1.13,3,3,0,0,0-1.14,1.17,3.17,3.17,0,0,0-.41,1.57h-2a5,5,0,0,1,.67-2.59,4.66,4.66,0,0,1,1.85-1.78,5.55,5.55,0,0,1,2.65-.63,5.2,5.2,0,0,1,2.58.65,4.82,4.82,0,0,1,1.82,1.82,4.93,4.93,0,0,1,.67,2.55,4.71,4.71,0,0,1-.54,2.38,9.23,9.23,0,0,1-1.83,2.11Z"/><path class="cls-4" d="M544.18,524.14a4.83,4.83,0,0,1-1.87-1.88,5.24,5.24,0,0,1-.68-2.68v-5.69a5.27,5.27,0,0,1,.68-2.69,4.8,4.8,0,0,1,1.87-1.87,5.64,5.64,0,0,1,5.37,0,4.9,4.9,0,0,1,1.88,1.87,5.38,5.38,0,0,1,.68,2.69v5.69a5.34,5.34,0,0,1-.68,2.68,4.92,4.92,0,0,1-1.88,1.88,5.64,5.64,0,0,1-5.37,0Zm4.35-1.62a3.23,3.23,0,0,0,1.19-1.19,3.16,3.16,0,0,0,.45-1.64v-5.93a3.14,3.14,0,0,0-.45-1.64,3.34,3.34,0,0,0-1.19-1.2,3.3,3.3,0,0,0-1.66-.44,3.22,3.22,0,0,0-1.64.44,3.37,3.37,0,0,0-1.2,1.2,3.22,3.22,0,0,0-.44,1.64v5.93a3.25,3.25,0,0,0,1.64,2.83,3.13,3.13,0,0,0,1.64.44A3.2,3.2,0,0,0,548.53,522.52Z"/><path class="cls-4" d="M557.84,511.08l-2.93,1.77v-2.13l2.93-1.75h1.94V524.5h-1.94Z"/><path class="cls-4" d="M573.3,517.82a5.07,5.07,0,0,1-.13,4.72,4.35,4.35,0,0,1-1.81,1.69,5.78,5.78,0,0,1-2.63.59,5.71,5.71,0,0,1-2.62-.59,4.38,4.38,0,0,1-1.8-1.69,4.76,4.76,0,0,1-.65-2.49,4.85,4.85,0,0,1,.51-2.23,4.14,4.14,0,0,1,1.52-1.65,3.68,3.68,0,0,1-1.22-1.41,4.17,4.17,0,0,1-.42-1.87,4.24,4.24,0,0,1,.59-2.25,4,4,0,0,1,1.66-1.48,6,6,0,0,1,4.86,0,4.07,4.07,0,0,1,1.67,1.48,4.16,4.16,0,0,1,.6,2.25,4.29,4.29,0,0,1-.41,1.88,3.51,3.51,0,0,1-1.23,1.4A4.26,4.26,0,0,1,573.3,517.82Zm-2.35,4.4a3.22,3.22,0,0,0,0-4.33,3.6,3.6,0,0,0-4.45,0,3.25,3.25,0,0,0,0,4.33,3.13,3.13,0,0,0,2.21.77A3.17,3.17,0,0,0,571,522.22Zm-4.15-11.1a2.55,2.55,0,0,0,0,3.55,3.31,3.31,0,0,0,3.86,0,2.55,2.55,0,0,0,0-3.55,3.31,3.31,0,0,0-3.86,0Z"/><path class="cls-4" d="M616.32,522.64h7.38v1.83H613.37l0-1.72,6.88-6.19a4.49,4.49,0,0,0,1.14-1.42,3.42,3.42,0,0,0,.33-1.49,3.24,3.24,0,0,0-.41-1.61,3.09,3.09,0,0,0-1.13-1.14,3,3,0,0,0-1.59-.42,3.16,3.16,0,0,0-1.64.43,3.18,3.18,0,0,0-1.55,2.74h-2a5.09,5.09,0,0,1,.66-2.59,4.75,4.75,0,0,1,1.86-1.78,5.55,5.55,0,0,1,2.65-.63,5.2,5.2,0,0,1,2.58.65,4.89,4.89,0,0,1,1.82,1.82,5,5,0,0,1,.67,2.55,4.71,4.71,0,0,1-.54,2.38,9.23,9.23,0,0,1-1.83,2.11Z"/><path class="cls-4" d="M628.84,524.14a4.92,4.92,0,0,1-1.88-1.88,5.34,5.34,0,0,1-.68-2.68v-5.69a5.38,5.38,0,0,1,.68-2.69,4.9,4.9,0,0,1,1.88-1.87,5.64,5.64,0,0,1,5.37,0,4.8,4.8,0,0,1,1.87,1.87,5.27,5.27,0,0,1,.68,2.69v5.69a5.24,5.24,0,0,1-.68,2.68,4.83,4.83,0,0,1-1.87,1.88,5.64,5.64,0,0,1-5.37,0Zm4.34-1.62a3.19,3.19,0,0,0,1.2-1.19,3.15,3.15,0,0,0,.44-1.64v-5.93a3.13,3.13,0,0,0-.44-1.64,3.29,3.29,0,0,0-1.2-1.2,3.29,3.29,0,0,0-3.29,0,3.29,3.29,0,0,0-1.2,1.2,3.13,3.13,0,0,0-.44,1.64v5.93a3.15,3.15,0,0,0,.44,1.64,3.19,3.19,0,0,0,1.2,1.19,3.29,3.29,0,0,0,3.29,0Z"/><path class="cls-4" d="M642.31,522.64h7.37v1.83H639.35l0-1.72,6.88-6.19a4.49,4.49,0,0,0,1.14-1.42,3.42,3.42,0,0,0,.33-1.49,3.24,3.24,0,0,0-.41-1.61,3.21,3.21,0,0,0-4.36-1.13,3,3,0,0,0-1.14,1.17,3.17,3.17,0,0,0-.41,1.57h-2a5,5,0,0,1,.67-2.59,4.66,4.66,0,0,1,1.85-1.78,5.55,5.55,0,0,1,2.65-.63,5.2,5.2,0,0,1,2.58.65,4.82,4.82,0,0,1,1.82,1.82,4.93,4.93,0,0,1,.67,2.55,4.71,4.71,0,0,1-.54,2.38,9.23,9.23,0,0,1-1.83,2.11Z"/><path class="cls-4" d="M654.82,524.14a4.83,4.83,0,0,1-1.87-1.88,5.24,5.24,0,0,1-.68-2.68v-5.69a5.27,5.27,0,0,1,.68-2.69,4.8,4.8,0,0,1,1.87-1.87,5.64,5.64,0,0,1,5.37,0,4.9,4.9,0,0,1,1.88,1.87,5.38,5.38,0,0,1,.68,2.69v5.69a5.34,5.34,0,0,1-.68,2.68,4.92,4.92,0,0,1-1.88,1.88,5.64,5.64,0,0,1-5.37,0Zm4.35-1.62a3.23,3.23,0,0,0,1.19-1.19,3.16,3.16,0,0,0,.45-1.64v-5.93a3.14,3.14,0,0,0-.45-1.64,3.34,3.34,0,0,0-1.19-1.2,3.3,3.3,0,0,0-1.66-.44,3.22,3.22,0,0,0-1.64.44,3.37,3.37,0,0,0-1.2,1.2,3.22,3.22,0,0,0-.44,1.64v5.93a3.25,3.25,0,0,0,1.64,2.83,3.13,3.13,0,0,0,1.64.44A3.2,3.2,0,0,0,659.17,522.52Z"/><path class="cls-4" d="M11.08,121.72h7.38v1.83H8.13l0-1.73L15,115.64a4.52,4.52,0,0,0,1.14-1.43,3.39,3.39,0,0,0,.33-1.49,3.23,3.23,0,0,0-.41-1.6A3.21,3.21,0,0,0,11.73,110a3,3,0,0,0-1.14,1.16,3.1,3.1,0,0,0-.41,1.57h-2a5.05,5.05,0,0,1,.66-2.58,4.69,4.69,0,0,1,1.86-1.78,5.44,5.44,0,0,1,2.65-.64,5.11,5.11,0,0,1,2.58.66,4.86,4.86,0,0,1,1.82,1.81,5,5,0,0,1,.67,2.56,4.74,4.74,0,0,1-.54,2.38,9.21,9.21,0,0,1-1.83,2.1Z"/><path class="cls-4" d="M23.6,123.21a4.9,4.9,0,0,1-1.88-1.87,5.37,5.37,0,0,1-.67-2.69V113a5.36,5.36,0,0,1,.67-2.68,4.92,4.92,0,0,1,1.88-1.88,5.64,5.64,0,0,1,5.37,0,4.92,4.92,0,0,1,1.88,1.88,5.36,5.36,0,0,1,.67,2.68v5.69a5.37,5.37,0,0,1-.67,2.69A4.9,4.9,0,0,1,29,123.21a5.64,5.64,0,0,1-5.37,0ZM28,121.6a3.34,3.34,0,0,0,1.19-1.2,3.13,3.13,0,0,0,.44-1.64v-5.93a3.15,3.15,0,0,0-.44-1.64A3.23,3.23,0,0,0,28,110a3.2,3.2,0,0,0-1.66-.44,3.13,3.13,0,0,0-1.64.44,3.19,3.19,0,0,0-1.2,1.19,3.15,3.15,0,0,0-.44,1.64v5.93a3.13,3.13,0,0,0,.44,1.64,3.29,3.29,0,0,0,1.2,1.2,3.22,3.22,0,0,0,1.64.44A3.3,3.3,0,0,0,28,121.6Z"/><path class="cls-4" d="M11.28,206.19,8.35,208v-2.13l2.93-1.75h1.94V219.6H11.28Z"/><path class="cls-4" d="M24.76,210.26a5,5,0,0,1,1.83,1.84,5.24,5.24,0,0,1,.67,2.6,4.91,4.91,0,0,1-.74,2.61,5.36,5.36,0,0,1-2,1.91,5.23,5.23,0,0,1-2.65.7,5,5,0,0,1-3.17-1.08,5.23,5.23,0,0,1-1.86-2.78l1.86-.5a3.13,3.13,0,0,0,1.2,1.81,3.42,3.42,0,0,0,3.73.22,3.27,3.27,0,0,0,1.2-1.22,3.21,3.21,0,0,0,.44-1.67,3.26,3.26,0,0,0-.45-1.69,3.37,3.37,0,0,0-1.22-1.21,3.31,3.31,0,0,0-1.67-.44,3.52,3.52,0,0,0-1.71.41,3.43,3.43,0,0,0-1.2,1.06l-1.7-.65.47-8.11h8.35v1.81h-6.6l-.3,4.73a4.61,4.61,0,0,1,1.36-.75,4.56,4.56,0,0,1,1.55-.27A5.05,5.05,0,0,1,24.76,210.26Z"/><path class="cls-4" d="M11.28,297.25,8.35,299v-2.14l2.93-1.74h1.94v15.52H11.28Z"/><path class="cls-4" d="M19.87,310.31A5,5,0,0,1,18,308.43a5.36,5.36,0,0,1-.67-2.68v-5.7a5.36,5.36,0,0,1,.67-2.68,5,5,0,0,1,1.88-1.88,5.64,5.64,0,0,1,5.37,0,5,5,0,0,1,1.88,1.88,5.36,5.36,0,0,1,.67,2.68v5.7a5.36,5.36,0,0,1-.67,2.68,5,5,0,0,1-1.88,1.88,5.64,5.64,0,0,1-5.37,0Zm4.35-1.62a3.26,3.26,0,0,0,1.19-1.2,3.13,3.13,0,0,0,.44-1.64v-5.93a3.12,3.12,0,0,0-.44-1.63,3.25,3.25,0,0,0-2.86-1.64,3.28,3.28,0,0,0-3.27,3.27v5.93a3.13,3.13,0,0,0,.44,1.64,3.28,3.28,0,0,0,2.83,1.64A3.31,3.31,0,0,0,24.22,308.69Z"/><path class="cls-4" d="M27.46,395.51a4.83,4.83,0,0,1,1.82,1.85A5.08,5.08,0,0,1,30,400a4.9,4.9,0,0,1-.73,2.61,5.44,5.44,0,0,1-2,1.91,5.26,5.26,0,0,1-2.66.7,5,5,0,0,1-3.17-1.08,5.16,5.16,0,0,1-1.85-2.78l1.85-.49a3.19,3.19,0,0,0,1.2,1.8,3.36,3.36,0,0,0,2,.68,3.18,3.18,0,0,0,1.69-.46,3.37,3.37,0,0,0,1.2-4.58,3.37,3.37,0,0,0-1.22-1.21,3.33,3.33,0,0,0-1.67-.44A3.56,3.56,0,0,0,23,397a3.49,3.49,0,0,0-1.19,1.06l-1.71-.65.48-8.11h8.34v1.81h-6.6l-.3,4.73a4.74,4.74,0,0,1,1.36-.75,4.56,4.56,0,0,1,1.55-.27A5.11,5.11,0,0,1,27.46,395.51Z"/><path class="cls-4" d="M22.57,493.8a4.92,4.92,0,0,1-1.88-1.88,5.37,5.37,0,0,1-.68-2.68v-5.7a5.37,5.37,0,0,1,.68-2.68A4.92,4.92,0,0,1,22.57,479a5.62,5.62,0,0,1,5.36,0,4.92,4.92,0,0,1,1.88,1.88,5.37,5.37,0,0,1,.68,2.68v5.7a5.37,5.37,0,0,1-.68,2.68,4.92,4.92,0,0,1-1.88,1.88,5.62,5.62,0,0,1-5.36,0Zm4.34-1.62a3.37,3.37,0,0,0,1.2-1.2,3.22,3.22,0,0,0,.44-1.64v-5.93a3.19,3.19,0,0,0-.44-1.63,3.29,3.29,0,0,0-1.2-1.2,3.17,3.17,0,0,0-1.66-.44,3.13,3.13,0,0,0-1.64.44,3.29,3.29,0,0,0-1.2,1.2,3.19,3.19,0,0,0-.44,1.63v5.93a3.22,3.22,0,0,0,.44,1.64,3.37,3.37,0,0,0,1.2,1.2,3.22,3.22,0,0,0,1.64.44A3.27,3.27,0,0,0,26.91,492.18Z"/><polyline class="cls-5" points="52.3 223.44 92.87 219.92 134.1 221.68 178.66 228.75 217.24 228.75 259.81 184.19 303.7 188.85 344.94 188.19 384.18 174.22 425.41 161.58 467.98 135.64 513.2 123.57 552.44 116.36 592.35 102.39 634.91 378.4 675.48 351.8"/><circle class="cls-4" cx="53.99" cy="225.12" r="5.71"/><circle class="cls-4" cx="136.32" cy="222.05" r="5.71"/><circle class="cls-4" cx="217.46" cy="227.76" r="5.71"/><circle class="cls-4" cx="261.03" cy="185.53" r="5.71"/><circle class="cls-4" cx="302.51" cy="188.85" r="5.71"/><circle class="cls-4" cx="343.99" cy="188.41" r="5.71"/><circle class="cls-4" cx="385.56" cy="174.11" r="5.71"/><circle class="cls-4" cx="425.97" cy="161.14" r="5.71"/><circle class="cls-4" cx="468.7" cy="136.2" r="5.71"/><circle class="cls-4" cx="512.43" cy="123.57" r="5.71"/><circle class="cls-4" cx="552.16" cy="116.36" r="5.71"/><circle class="cls-4" cx="591.9" cy="103.55" r="5.71"/><circle class="cls-4" cx="635.97" cy="377.4" r="5.71"/><circle class="cls-4" cx="676.87" cy="351.13" r="5.71"/><circle class="cls-4" cx="176.89" cy="228.76" r="5.71"/><circle class="cls-4" cx="93.23" cy="219.92" r="5.71"/><line class="cls-5" x1="302.6" y1="89.75" x2="302.6" y2="176.66"/><polyline class="cls-5" points="293.14 167.14 302.45 176.45 312.05 166.85"/><path class="cls-4" d="M208.24,62.46h1.92V78h-1.92Z"/><path class="cls-4" d="M221.78,66.9a4.57,4.57,0,0,1,1.45,2.1,8.12,8.12,0,0,1,.41,2.53V78H221.7V72.14a5.89,5.89,0,0,0-.74-3.09,2.63,2.63,0,0,0-2.43-1.2,2.86,2.86,0,0,0-2.34,1,4.53,4.53,0,0,0-.86,3V78h-1.94V66.34h1.73v1.49a4.26,4.26,0,0,1,1.64-1.33A5.22,5.22,0,0,1,219,66,4.18,4.18,0,0,1,221.78,66.9Z"/><path class="cls-4" d="M226.65,62.18h1.92v2h-1.92Zm0,4.16h1.92V78h-1.92Z"/><path class="cls-4" d="M233.74,77.52a5.11,5.11,0,0,1-1.9-2.18,7.66,7.66,0,0,1-.68-3.18,7.55,7.55,0,0,1,.69-3.22,5,5,0,0,1,1.92-2.16,5.6,5.6,0,0,1,3-.77,5.46,5.46,0,0,1,3.15.91,4.4,4.4,0,0,1,1.8,2.48l-1.89.56a3.22,3.22,0,0,0-3.09-2.13A3.07,3.07,0,0,0,234.11,69a5.27,5.27,0,0,0-.9,3.16,5.07,5.07,0,0,0,.92,3.16,3.07,3.07,0,0,0,2.59,1.15,3,3,0,0,0,3-2l1.94.5a4.93,4.93,0,0,1-1.89,2.5,5.41,5.41,0,0,1-3.09.86A5.47,5.47,0,0,1,233.74,77.52Z"/><path class="cls-4" d="M243.8,62.18h1.91v2H243.8Zm0,4.16h1.91V78H243.8Z"/><path class="cls-4" d="M250.93,77.53a5.1,5.1,0,0,1-2-2.18,7.28,7.28,0,0,1-.68-3.21,7.08,7.08,0,0,1,.69-3.2,5.14,5.14,0,0,1,2-2.16,6.12,6.12,0,0,1,6,0A5.2,5.2,0,0,1,258.86,69a7.82,7.82,0,0,1,0,6.4,5.18,5.18,0,0,1-2,2.17,6.13,6.13,0,0,1-5.95,0Zm5.65-2.23a5,5,0,0,0,.91-3.16,5,5,0,0,0-.92-3.16,3.19,3.19,0,0,0-2.66-1.15A3.12,3.12,0,0,0,251.25,69a6,6,0,0,0,0,6.33,3.62,3.62,0,0,0,5.31,0Z"/><path class="cls-4" d="M269.22,73.5v.69a6.3,6.3,0,0,0,0,.84,2.17,2.17,0,0,0,.18.56,2,2,0,0,0,1.9.86,7.63,7.63,0,0,0,1.38-.13V78a7.87,7.87,0,0,1-1.74.2,4.89,4.89,0,0,1-2-.39,2.52,2.52,0,0,1-1.28-1.21,3.53,3.53,0,0,1-.32-1,8.75,8.75,0,0,1-.07-1.24V67.91h-2.37V66.34h2.37V63.1h1.92v3.24h3.51v1.57h-3.51Z"/><path class="cls-4" d="M284.44,70.78V78h-1.7V76.15a4.79,4.79,0,0,1-4.32,2.15,4.64,4.64,0,0,1-2.15-.46,3.15,3.15,0,0,1-1.36-1.26,3.48,3.48,0,0,1-.45-1.75q0-2.58,2.86-3.43a37.2,37.2,0,0,1,4.42-.75l.8-.11a2.93,2.93,0,0,0-.71-2.08,3,3,0,0,0-2.16-.66,3.41,3.41,0,0,0-1.87.5,2.58,2.58,0,0,0-1.08,1.53l-1.83-.54a4.14,4.14,0,0,1,1.65-2.42A5.37,5.37,0,0,1,279.7,66a5.83,5.83,0,0,1,2.73.58,3.37,3.37,0,0,1,1.62,1.69A6.37,6.37,0,0,1,284.44,70.78Zm-3.29,5.14A3.14,3.14,0,0,0,282.33,74a6.6,6.6,0,0,0,.19-1.85l-1,.15-1.84.27a11.67,11.67,0,0,0-1.48.31c-1.21.38-1.81,1-1.81,1.92a1.75,1.75,0,0,0,.58,1.34,2.48,2.48,0,0,0,1.74.54A3.8,3.8,0,0,0,281.15,75.92Z"/><path class="cls-4" d="M288.22,77.39a3.81,3.81,0,0,1-1.62-2.56l2-.32a2.45,2.45,0,0,0,1.1,1.51,3.81,3.81,0,0,0,2.11.56,3.14,3.14,0,0,0,1.87-.5,1.58,1.58,0,0,0,.67-1.35,1.28,1.28,0,0,0-.22-.81,2,2,0,0,0-.9-.55A21,21,0,0,0,291,72.7a12.79,12.79,0,0,1-2.45-.85,3.23,3.23,0,0,1-1.25-1,2.51,2.51,0,0,1-.38-1.41A3,3,0,0,1,288.19,67a5.28,5.28,0,0,1,3.26-.94,5.65,5.65,0,0,1,3.31.94,3.43,3.43,0,0,1,1.5,2.47l-2,.35a2.11,2.11,0,0,0-1-1.5,3.48,3.48,0,0,0-2-.55,3.12,3.12,0,0,0-1.74.43,1.32,1.32,0,0,0-.66,1.16,1.06,1.06,0,0,0,.27.75,2.71,2.71,0,0,0,1,.56,18.41,18.41,0,0,0,2.09.61,11.91,11.91,0,0,1,2.44.84,3,3,0,0,1,1.26,1.07,2.9,2.9,0,0,1,.38,1.54,3.17,3.17,0,0,1-1.24,2.65,5.41,5.41,0,0,1-3.42,1A5.92,5.92,0,0,1,288.22,77.39Z"/><path class="cls-4" d="M308,70.78V78h-1.71V76.15A4.77,4.77,0,0,1,302,78.3a4.64,4.64,0,0,1-2.15-.46,3.15,3.15,0,0,1-1.36-1.26,3.49,3.49,0,0,1-.46-1.75q0-2.58,2.87-3.43a37.2,37.2,0,0,1,4.42-.75l.8-.11a2.45,2.45,0,0,0-2.87-2.74,3.39,3.39,0,0,0-1.87.5,2.58,2.58,0,0,0-1.08,1.53l-1.83-.54a4.09,4.09,0,0,1,1.65-2.42,5.36,5.36,0,0,1,3.15-.86,5.84,5.84,0,0,1,2.74.58,3.37,3.37,0,0,1,1.62,1.69A6.37,6.37,0,0,1,308,70.78Zm-3.29,5.14A3.14,3.14,0,0,0,305.92,74a7,7,0,0,0,.19-1.85l-1,.15-1.84.27a11.67,11.67,0,0,0-1.48.31c-1.21.38-1.82,1-1.82,1.92a1.76,1.76,0,0,0,.59,1.34,2.47,2.47,0,0,0,1.74.54A3.82,3.82,0,0,0,304.74,75.92Z"/><path class="cls-4" d="M318.14,73.5v.69a6.3,6.3,0,0,0,.05.84,1.85,1.85,0,0,0,.19.56,2,2,0,0,0,1.89.86,7.47,7.47,0,0,0,1.38-.13V78a7.8,7.8,0,0,1-1.74.2,4.92,4.92,0,0,1-2-.39,2.52,2.52,0,0,1-1.28-1.21,3.5,3.5,0,0,1-.31-1,8.59,8.59,0,0,1-.08-1.24V67.91h-2.37V66.34h2.37V63.1h1.92v3.24h3.51v1.57h-3.51Z"/><path class="cls-4" d="M334.05,66.34V78h-1.72V76.49a4.26,4.26,0,0,1-1.64,1.33,5.22,5.22,0,0,1-2.24.46,4.17,4.17,0,0,1-2.78-.86,4.52,4.52,0,0,1-1.45-2.11,8.25,8.25,0,0,1-.41-2.55V66.34h1.94v5.82a5.92,5.92,0,0,0,.73,3.08,2.63,2.63,0,0,0,2.44,1.21,2.91,2.91,0,0,0,2.34-1,4.53,4.53,0,0,0,.85-3V66.34Z"/><path class="cls-4" d="M340.91,66.46a4.22,4.22,0,0,1,1.31-.21,3.52,3.52,0,0,1,.87.09v1.79a4.16,4.16,0,0,0-.89-.11,2.89,2.89,0,0,0-1.79.56c-.93.66-1.4,1.85-1.4,3.56V78h-1.94V66.34h1.73v1.83a3.35,3.35,0,0,1,1-1.12A3.15,3.15,0,0,1,340.91,66.46Z"/><path class="cls-4" d="M343.43,63.49l5.2-2.05.54,1.45-5.18,2Zm3.84,2.85V78h-1.92V66.34Z"/><path class="cls-4" d="M351.49,77.39a3.79,3.79,0,0,1-1.63-2.56l2-.32a2.45,2.45,0,0,0,1.1,1.51,3.81,3.81,0,0,0,2.11.56,3.14,3.14,0,0,0,1.87-.5,1.59,1.59,0,0,0,.68-1.35,1.28,1.28,0,0,0-.23-.81,2,2,0,0,0-.89-.55,22.3,22.3,0,0,0-2.16-.67,12.79,12.79,0,0,1-2.45-.85,3.23,3.23,0,0,1-1.25-1,2.51,2.51,0,0,1-.38-1.41A3,3,0,0,1,351.45,67a5.28,5.28,0,0,1,3.26-.94A5.65,5.65,0,0,1,358,67a3.43,3.43,0,0,1,1.5,2.47l-2,.35a2.13,2.13,0,0,0-.94-1.5,3.54,3.54,0,0,0-2.05-.55,3.12,3.12,0,0,0-1.74.43,1.32,1.32,0,0,0-.66,1.16,1.06,1.06,0,0,0,.27.75,2.71,2.71,0,0,0,1,.56,18.09,18.09,0,0,0,2.1.61,12,12,0,0,1,2.43.84,3,3,0,0,1,1.26,1.07,2.9,2.9,0,0,1,.38,1.54,3.17,3.17,0,0,1-1.24,2.65,5.41,5.41,0,0,1-3.42,1A5.87,5.87,0,0,1,351.49,77.39Z"/><path class="cls-4" d="M365,73.5v.69A6.3,6.3,0,0,0,365,75a1.85,1.85,0,0,0,.19.56,2,2,0,0,0,1.9.86,7.63,7.63,0,0,0,1.38-.13V78a8,8,0,0,1-1.75.2,4.92,4.92,0,0,1-2-.39,2.52,2.52,0,0,1-1.28-1.21,3.5,3.5,0,0,1-.31-1,8.59,8.59,0,0,1-.08-1.24V67.91h-2.37V66.34H363V63.1H365v3.24h3.52v1.57H365Z"/><path class="cls-4" d="M371.05,62.18H373v2h-1.92Zm0,4.16H373V78h-1.92Z"/><path class="cls-4" d="M378.14,77.52a5.11,5.11,0,0,1-1.9-2.18,7.5,7.5,0,0,1-.68-3.18,7.41,7.41,0,0,1,.69-3.22,4.92,4.92,0,0,1,1.92-2.16,5.56,5.56,0,0,1,3-.77,5.49,5.49,0,0,1,3.16.91,4.4,4.4,0,0,1,1.8,2.48l-1.9.56A3.16,3.16,0,0,0,383,68.4a3.27,3.27,0,0,0-1.89-.57A3.07,3.07,0,0,0,378.51,69a5.2,5.2,0,0,0-.9,3.16,5.14,5.14,0,0,0,.91,3.16,3.1,3.1,0,0,0,2.6,1.15,3,3,0,0,0,3-2l1.94.5a4.9,4.9,0,0,1-1.9,2.5,5.38,5.38,0,0,1-3.08.86A5.47,5.47,0,0,1,378.14,77.52Z"/><path class="cls-4" d="M397.53,70.78V78h-1.7V76.15a4.78,4.78,0,0,1-4.32,2.15,4.64,4.64,0,0,1-2.15-.46A3.15,3.15,0,0,1,388,76.58a3.48,3.48,0,0,1-.45-1.75q0-2.58,2.86-3.43a37.58,37.58,0,0,1,4.42-.75l.8-.11a2.45,2.45,0,0,0-2.86-2.74,3.42,3.42,0,0,0-1.88.5,2.58,2.58,0,0,0-1.08,1.53L388,69.29a4.18,4.18,0,0,1,1.65-2.42,5.37,5.37,0,0,1,3.16-.86,5.83,5.83,0,0,1,2.73.58,3.37,3.37,0,0,1,1.62,1.69A6.37,6.37,0,0,1,397.53,70.78Zm-3.29,5.14A3.14,3.14,0,0,0,395.42,74a6.6,6.6,0,0,0,.19-1.85l-1,.15-1.83.27a11.87,11.87,0,0,0-1.49.31c-1.21.38-1.81,1-1.81,1.92a1.75,1.75,0,0,0,.58,1.34,2.48,2.48,0,0,0,1.74.54A3.8,3.8,0,0,0,394.24,75.92Z"/><rect class="cls-6" x="635.97" y="23.91" width="42.84" height="462.23"/><path class="cls-4" d="M663.06,160.15a6.53,6.53,0,0,1-2.85,2.49,10.93,10.93,0,0,1-8.45,0,6.53,6.53,0,0,1-2.85-2.49,7.3,7.3,0,0,1-1-3.9,7.07,7.07,0,0,1,1.33-4.41,6.9,6.9,0,0,1,3.71-2.43l.52,1.94a5.16,5.16,0,0,0-2.75,1.74,5,5,0,0,0-1,3.16,4.65,4.65,0,0,0,1.68,3.87,7.35,7.35,0,0,0,4.57,1.35,7,7,0,0,0,4.56-1.33,4.69,4.69,0,0,0,1.7-3.89,5,5,0,0,0-1-3.16,5.17,5.17,0,0,0-2.78-1.74l.52-1.94a7.06,7.06,0,0,1,3.72,2.44,7,7,0,0,1,1.35,4.4A7.3,7.3,0,0,1,663.06,160.15Z"/><path class="cls-4" d="M663.29,145.06a5,5,0,0,1-2.18,1.95,7.28,7.28,0,0,1-3.21.68,7.14,7.14,0,0,1-3.2-.69,5.14,5.14,0,0,1-2.16-2,6.17,6.17,0,0,1,0-5.95,5.16,5.16,0,0,1,2.17-2,7.84,7.84,0,0,1,6.41,0,5.15,5.15,0,0,1,2.16,2,6.06,6.06,0,0,1,0,5.95Zm-2.23-5.65a5.91,5.91,0,0,0-6.32,0,3.65,3.65,0,0,0,0,5.33,5.1,5.1,0,0,0,3.15.89,5,5,0,0,0,3.18-.92,3.6,3.6,0,0,0,0-5.31Z"/><path class="cls-4" d="M652.22,130.24a4.17,4.17,0,0,1-.2-1.31,4.05,4.05,0,0,1,.08-.86h1.79a4.07,4.07,0,0,0-.11.88,2.87,2.87,0,0,0,.56,1.79c.67.94,1.85,1.4,3.56,1.4h5.85v1.94H652.1v-1.72h1.83a3.57,3.57,0,0,1-1.12-1A3.37,3.37,0,0,1,652.22,130.24Z"/><path class="cls-4" d="M663.29,124.25a5,5,0,0,1-2.18,2,7.28,7.28,0,0,1-3.21.68,7.14,7.14,0,0,1-3.2-.69,5.07,5.07,0,0,1-2.16-2,5.61,5.61,0,0,1-.76-3,5.72,5.72,0,0,1,.77-3,5.07,5.07,0,0,1,2.17-2,7.08,7.08,0,0,1,3.18-.68,7.21,7.21,0,0,1,3.23.69,5.13,5.13,0,0,1,2.16,2,6.06,6.06,0,0,1,0,6Zm-2.23-5.65a5,5,0,0,0-3.16-.9,5,5,0,0,0-3.16.91,3.65,3.65,0,0,0,0,5.33,5.1,5.1,0,0,0,3.15.89,5,5,0,0,0,3.18-.91,3.61,3.61,0,0,0,0-5.32Z"/><path class="cls-4" d="M652.66,104.89a4.65,4.65,0,0,1,2.11-1.45,8.07,8.07,0,0,1,2.53-.41h6.45V105H657.9a5.83,5.83,0,0,0-3.08.74,2.61,2.61,0,0,0-1.21,2.43,2.86,2.86,0,0,0,1,2.34,4.48,4.48,0,0,0,3,.86h6.15v1.94H652.1v-1.73h1.49a4.35,4.35,0,0,1-1.33-1.64,5.22,5.22,0,0,1-.46-2.24A4.24,4.24,0,0,1,652.66,104.89Z"/><path class="cls-4" d="M656.54,90.89h7.21V92.6h-1.84a4.77,4.77,0,0,1,2.16,4.31,4.84,4.84,0,0,1-.46,2.16,3.14,3.14,0,0,1-1.27,1.35,3.38,3.38,0,0,1-1.74.46q-2.6,0-3.43-2.87a36.78,36.78,0,0,1-.76-4.42l-.1-.8a3,3,0,0,0-2.08.71,3,3,0,0,0-.66,2.16,3.44,3.44,0,0,0,.49,1.88,2.66,2.66,0,0,0,1.54,1.07l-.54,1.84a4.24,4.24,0,0,1-2.43-1.65,5.41,5.41,0,0,1-.85-3.16,6,6,0,0,1,.57-2.74A3.41,3.41,0,0,1,654,91.28,6.41,6.41,0,0,1,656.54,90.89Zm5.15,3.29A3.11,3.11,0,0,0,659.78,93a6.65,6.65,0,0,0-1.86-.2q.09.63.15,1,.13.93.27,1.83a12.06,12.06,0,0,0,.32,1.49c.37,1.2,1,1.81,1.92,1.81a1.76,1.76,0,0,0,1.33-.58,2.49,2.49,0,0,0,.54-1.75A3.81,3.81,0,0,0,661.69,94.18Z"/><path class="cls-4" d="M652.1,89.6V87.66l9.19-3.28-9.19-3.25V79.19l11.65,4.22v2Z"/><path class="cls-4" d="M647.94,77V75.11h2V77Zm4.16,0V75.11h11.65V77Z"/><path class="cls-4" d="M652.22,68a4.23,4.23,0,0,1-.2-1.32,4.12,4.12,0,0,1,.08-.86h1.79a4.16,4.16,0,0,0-.11.89,2.84,2.84,0,0,0,.56,1.78c.67.94,1.85,1.41,3.56,1.41h5.85v1.94H652.1V70.15h1.83a3.57,3.57,0,0,1-1.12-1A3.42,3.42,0,0,1,652.22,68Z"/><path class="cls-4" d="M652.1,53.79h11.65v1.72h-1.49a4.23,4.23,0,0,1,1.32,1.64,5.22,5.22,0,0,1,.47,2.24,4.22,4.22,0,0,1-.86,2.78,4.55,4.55,0,0,1-2.12,1.45,8.18,8.18,0,0,1-2.54.41H652.1V62.09h5.82a6,6,0,0,0,3.09-.73,2.64,2.64,0,0,0,1.2-2.44,2.88,2.88,0,0,0-1-2.34,4.5,4.5,0,0,0-3-.85H652.1Z"/><path class="cls-4" d="M663.15,49.79a3.81,3.81,0,0,1-2.55,1.62l-.33-2a2.43,2.43,0,0,0,1.51-1.1,3.73,3.73,0,0,0,.56-2.11,3.09,3.09,0,0,0-.49-1.86,1.57,1.57,0,0,0-1.36-.68,1.3,1.3,0,0,0-.81.22,2.11,2.11,0,0,0-.55.9c-.17.44-.39,1.16-.67,2.15a12.13,12.13,0,0,1-.85,2.45,3.13,3.13,0,0,1-1,1.25,2.51,2.51,0,0,1-1.41.38,3,3,0,0,1-2.47-1.23,5.22,5.22,0,0,1-.94-3.26,5.58,5.58,0,0,1,.94-3.31,3.36,3.36,0,0,1,2.47-1.49l.34,2a2.15,2.15,0,0,0-1.5,1,3.56,3.56,0,0,0-.55,2,3.2,3.2,0,0,0,.43,1.74,1.34,1.34,0,0,0,1.17.66,1,1,0,0,0,.74-.27,2.57,2.57,0,0,0,.56-1,18,18,0,0,0,.62-2.09,11.91,11.91,0,0,1,.84-2.44,3.09,3.09,0,0,1,1.06-1.26,2.94,2.94,0,0,1,1.55-.38A3.2,3.2,0,0,1,663.1,43a5.41,5.41,0,0,1,1,3.42A5.92,5.92,0,0,1,663.15,49.79Z"/></g></svg>