<svg width="434" height="198" viewBox="0 0 434 198" fill="none" xmlns="http://www.w3.org/2000/svg">
<path fill-rule="evenodd" clip-rule="evenodd" d="M42.8744 7.95919C42.4103 10.8123 43.7578 12.1702 44.4316 12.9402C46.439 14.982 49.251 16.333 51.3478 17.567C55.466 19.7499 61.3235 22.5376 68.2913 25.573C70.5842 26.5733 73.7054 27.7009 76.2423 28.7767C71.8286 29.9386 66.858 31.6712 60.3372 33.9364L54.8062 35.8924L57.3981 41.2309L89.2083 105.1C80.8793 104.749 72.9213 104.433 65.524 104.388C56.3764 104.33 47.8967 104.556 40.4546 105.1C25.5703 106.186 14.4981 108.056 7.43433 113.817L0.170898 119.867L8.9885 122.713C19.215 126.144 73.1766 139.123 86.2701 142.104C86.1154 142.286 85.8988 142.458 85.751 142.637C83.0285 145.961 80.9007 149.612 81.0829 154.022C81.2479 157.518 83.0869 160.987 85.751 162.918C88.4151 164.847 91.5673 165.654 95.087 166.122C101.928 167.029 110.59 166.363 121.02 164.52C128.706 177.445 135.323 187.06 145.918 196.007C149.503 199.025 153.202 197.97 156.463 196.719C159.726 195.468 163.046 193.323 166.319 190.315C172.864 184.303 179.082 174.719 179.976 162.385C180.402 156.92 180.774 152.86 181.186 148.687C187.539 146.676 194.139 144.322 200.721 142.105L204.179 142.637C207.833 143.277 215.307 146.092 224.234 147.797C233.16 149.502 243.927 150.19 254.834 146.374C258.581 145.023 281.258 137.065 297.885 131.432L298.923 131.077C309.772 136.619 322.078 143.154 334.711 150.114C349.561 158.296 364.439 166.629 376.378 173.242C388.24 179.811 396.518 184.534 400.928 186.229C400.928 186.232 401.082 186.229 401.1 186.229C406.321 188.336 414.1 190.072 421.329 188.363C424.966 187.504 428.926 185.136 430.493 180.715C432.057 176.298 430.92 171.527 428.073 166.126C425.138 160.692 421.504 155.178 418.738 150.647C413.44 142.036 406.507 130.786 399.546 119.514C392.585 108.242 385.52 96.8572 380.182 88.2015C376.212 81.77 374.699 79.1578 373.266 76.8161C373.445 76.7508 374.328 76.3349 374.476 76.2833C380.98 73.9836 398.872 67.2668 413.378 58.3155C420.628 53.8399 427.025 48.9206 430.841 42.8363C432.749 39.7941 434.13 36.1503 433.78 32.3414C433.433 28.5292 431.332 25.0848 428.249 22.2011C416.713 11.4625 403.334 7.47522 390.041 7.43386C383.998 7.42011 378.068 8.31385 372.231 9.56856C353.566 13.5801 335.98 22.3629 323.821 26.8245C318.445 28.9489 313.086 31.3139 307.743 33.586L305.667 33.2285C242.723 21.0458 104.033 2.49367 52.5526 0.850708C47.3895 0.888521 43.471 4.3157 42.8691 7.96629L42.8744 7.95919ZM62.0663 11.517C114.513 14.5936 228.105 29.667 290.629 40.8694L220.607 70.58L219.397 70.4012C162.648 50.9515 123.099 36.7615 72.0939 16.144C68.2611 14.4734 64.9989 12.9058 62.0663 11.5171V11.517ZM391.424 17.567C398.691 17.7045 405.727 19.248 412.344 22.9055L411.134 23.4383L406.466 25.2189L410.096 34.8267L414.764 32.8707L422.024 30.0245C423.413 31.4613 423.674 32.5442 423.753 33.4035C423.836 34.3419 423.633 35.5795 422.543 37.3188C420.364 40.7941 415.008 45.3178 408.367 49.4153C395.085 57.6103 377.237 64.5337 371.198 66.6712C363.907 69.2459 335.661 80.9096 298.756 95.3125C263.123 109.221 220.023 125.432 181.883 137.652C181.818 135.015 181.522 132.527 180.845 130.179C179.666 126.099 176.572 122.365 172.547 120.571C168.522 118.777 163.799 118.292 157.504 118.079C155.583 117.934 154.098 119.004 152.836 119.859C151.698 120.581 150.22 121.668 148.34 122.884C135.796 131.038 122.957 139.484 110.995 147.256C112.373 149.831 114.123 152.674 115.491 154.904C107.313 156.142 100.614 156.544 96.2989 155.973C93.7449 155.633 92.1018 155.014 91.4589 154.55C90.8333 154.097 90.9674 154.251 90.9399 153.66V153.481C90.9399 153.244 91.4417 151.732 93.3599 149.391C95.2849 147.039 98.2652 144.028 102.177 141.027C110.001 135.029 120.967 128.508 132.259 122.348C154.837 110.035 179.044 99.3989 183.609 97.4391C237.843 74.3497 277.76 57.547 327.454 36.2413C340.551 31.4116 357.219 23.1513 374.135 19.5178C378.388 18.6034 382.612 17.9778 386.755 17.7372C388.308 17.6478 389.89 17.5309 391.423 17.5584L391.424 17.567ZM85.5799 37.6698C86.7521 37.6251 87.6218 37.6251 88.5189 37.8485C92.7058 38.9004 97.8865 43.6991 109.439 53.8601C128.311 70.3055 141.573 86.4166 166.495 94.0655C156.144 98.7681 142.67 105.055 127.593 113.278C121.378 116.667 115.269 120.053 109.611 123.597L68.9829 41.761C76.9648 39.0935 82.0553 37.8078 85.5789 37.6704L85.5799 37.6698ZM113.413 43.895C115.895 44.8576 118.154 45.7753 120.673 46.7413C152.618 58.9821 186.21 70.9448 205.734 76.9843L181.875 87.1245L178.764 86.5917C149.675 81.2189 137.964 65.3204 115.83 46.029C114.929 45.2349 114.242 44.6368 113.41 43.8943L113.413 43.895ZM363.589 80.5426C364.909 82.7221 367.332 86.3279 371.887 93.7083C377.229 102.364 384.117 113.57 391.079 124.842C398.036 136.11 404.98 147.374 410.271 155.975C412.914 160.276 415.234 164.016 416.84 166.649C417.644 167.965 418.28 169.083 418.741 169.853C419.205 170.619 419.597 171.238 419.432 170.922C421.58 174.995 421.271 177.013 421.161 177.326C421.051 177.642 420.889 177.968 419.084 178.395C415.478 179.247 407.768 177.92 404.561 176.614C402.577 175.861 392.939 170.925 381.048 164.339C369.158 157.753 354.28 149.242 339.382 141.033C324.483 132.824 309.554 124.853 297.369 118.795C291.993 116.124 287.301 113.959 283.193 112.213C289.621 109.741 296.162 107.28 302.209 104.918C330.95 93.7017 351.489 85.3417 363.585 80.5466L363.589 80.5426ZM65.3478 114.701C74.3133 114.756 84.127 115.089 94.5665 115.591L101.307 129.289C99.6059 130.479 97.839 131.661 96.2922 132.847C95.9106 133.143 95.6253 133.442 95.254 133.737L94.044 133.383C92.5075 133.067 50.8343 123.164 27.3083 117.193C31.2718 116.426 35.9399 115.794 41.1411 115.412C48.2292 114.897 56.3791 114.646 65.3446 114.701L65.3478 114.701ZM266.595 118.616H270.4C270.311 118.616 273.779 119.269 277.836 120.929C280.204 121.899 283.047 123.215 286.134 124.666C271.744 129.602 254.863 135.394 251.556 136.584C242.863 139.626 234.121 139.176 226.139 137.653C223.509 137.151 221.069 136.694 218.704 136.051C234.757 130.417 250.93 124.532 266.595 118.616L266.595 118.616ZM158.54 128.403C163.48 128.66 166.824 129.224 168.567 130.004C170.479 130.857 170.822 131.259 171.335 133.029C172.356 136.567 171.142 146.343 169.953 161.671C169.279 170.918 164.676 178.136 159.75 182.663C157.289 184.925 154.755 186.616 153.006 187.29C152.163 187.617 151.62 187.469 151.448 187.469C140.524 178.005 134.22 167.476 124.478 150.643C136.712 142.523 146.987 135.662 158.193 128.584C158.382 128.461 158.382 128.505 158.536 128.406L158.54 128.403Z" fill="white"/>
<path fill-rule="evenodd" clip-rule="evenodd" d="M370.674 40.0616C366.494 41.8284 364.391 42.5331 360.214 44.3069L367.632 63.739C371.812 61.9722 373.919 61.2674 378.1 59.4972L370.674 40.0616Z" fill="white"/>
<path fill-rule="evenodd" clip-rule="evenodd" d="M353.453 46.468C348.63 48.4927 345.674 49.737 341.398 51.5177L345.066 60.9196C350.707 58.5856 352.676 57.7778 357.303 55.8562L353.453 46.468Z" fill="white"/>
<path fill-rule="evenodd" clip-rule="evenodd" d="M334.929 54.916C329.687 57.0919 328.184 57.7141 322.612 60.0104L326.455 69.4906C332.014 67.1566 333.99 66.3075 338.504 64.4409L334.929 54.916Z" fill="white"/>
<path fill-rule="evenodd" clip-rule="evenodd" d="M315.402 62.3872C310.572 64.68 308.021 65.7766 303.491 67.7875L307.458 77.0345C312.985 74.5595 314.099 74.0851 319.503 71.6274L315.402 62.3872Z" fill="white"/>
<path fill-rule="evenodd" clip-rule="evenodd" d="M296.763 70.5272C291.452 72.7272 289.459 73.5385 284.618 75.5012L288.424 85.0228C293.463 82.7988 295.807 81.8844 300.472 79.9731L296.763 70.5272Z" fill="white"/>
<path fill-rule="evenodd" clip-rule="evenodd" d="M277.676 77.9368C273.352 79.8824 270.066 81.2196 265.531 83.0965L269.216 92.443C274.128 90.4045 276.889 89.442 281.502 87.4448L277.676 77.9368Z" fill="white"/>
<path fill-rule="evenodd" clip-rule="evenodd" d="M258.976 85.5752C254.469 87.4142 250.874 88.913 246.416 90.8208L249.991 100.377C254.477 98.517 258.282 96.9185 262.551 95.1311L258.976 85.5752Z" fill="white"/>
<path fill-rule="evenodd" clip-rule="evenodd" d="M239.554 93.064C235.306 94.7724 231.837 96.3296 227.499 98.1137L231.167 107.56C236.227 105.604 238.575 104.6 243.233 102.586L239.554 93.064Z" fill="white"/>
<path fill-rule="evenodd" clip-rule="evenodd" d="M221.127 101.098C216.824 102.769 212.661 104.667 208.378 106.368L211.963 115.92C216.267 114.25 220.43 112.352 224.712 110.651L221.127 101.098Z" fill="white"/>
<path fill-rule="evenodd" clip-rule="evenodd" d="M202.137 109.045L197.5 110.898L193.969 112.31L189.325 114.17L192.938 123.713L197.575 121.86L201.106 120.447L205.743 118.588L202.133 109.045H202.137Z" fill="white"/>
</svg>
