<svg id="Capa_1" data-name="Capa 1" xmlns="http://www.w3.org/2000/svg" viewBox="0 0 411.13 189.26"><defs><style>.cls-1{fill:none;stroke:#fff;stroke-miterlimit:10;stroke-width:4px;}</style></defs><path class="cls-1" d="M103.74,154.3l-17.86,1.85c-41.41,2.52-4-26.91-4-26.91C126.34,93.29,342.81,13.06,342.81,13.06s36.77-12.39,54,0,14.92,25.65-2.38,35.16c-33.15,18.19-64.62,29.93-139.69,57.52,0,0,95.3,55.78,127.48,68.43s25-3.69,22.16-9c-12.91-24.4-56.71-94.76-56.71-94.76" transform="translate(0.5 0.5)"/><path class="cls-1" d="M86.81,125.57,44.91,39.4s-4.47-6,4.67-9,19.78-6.7,36.43,9C101,53.47,143.24,87,161.25,86.75" transform="translate(0.5 0.5)"/><path class="cls-1" d="M290.23,33.15S102.54,2.2,43.81,1.51C23.37,1.26,32.68,7,39.19,10.24c38,18.78,158.4,60.57,158.4,60.57" transform="translate(0.5 0.5)"/><path class="cls-1" d="M182.81,130.28s27.87,16,56.84,4.06,38.21-15.24,38.21-15.24" transform="translate(0.5 0.5)"/><path class="cls-1" d="M77.19,105.75s-50.83-4-73.28,3.62a3.63,3.63,0,0,0,.34,6.94l71.74,18" transform="translate(0.5 0.5)"/><path class="cls-1" d="M102.53,141.42l33.82-21.24a7.54,7.54,0,0,1,4-1.16c5,0,16.32,1,16.61,10.22.36,11.86,3.78,38.4-9.85,48.9s-15.86,13.81-29.73-4a172.5,172.5,0,0,1-16.81-25.55A5.49,5.49,0,0,1,102.53,141.42Z" transform="translate(0.5 0.5)"/><line class="cls-1" x1="404.88" y1="20.57" x2="392.38" y2="24.54"/><line class="cls-1" x1="158.1" y1="139.4" x2="255.24" y2="106.24"/></svg>