<svg xmlns="http://www.w3.org/2000/svg" viewBox="0 0 638.48 186.28"><defs><style>.cls-1{isolation:isolate;}.cls-2{mix-blend-mode:multiply;}.cls-3{fill:#104587;}.cls-4{fill:#2dabd8;}</style></defs><g class="cls-1"><g id="Capa_4" data-name="Capa 4"><g class="cls-2"><path class="cls-3" d="M52,41.93,39.45,39.85l1.47-10.37,11.93.44ZM54.6,96.49l-15.54-.91,3.8-47.21H49Z"/><path class="cls-3" d="M89.92,68.18c-2,2-15.31,2.31-15.31,2.31V82.58l-17.35.73v-58A61.11,61.11,0,0,1,65,24.13a163,163,0,0,1,19.53.7c3.28.47,6.2,3.45,7.58,6.15s1.17,8.6,1.31,19S91.89,66.17,89.92,68.18ZM76.19,49.05c-.1-9.11-.87-14.11-1.63-16.6a3.13,3.13,0,0,0-2.81-2.05H67.63a.76.76,0,0,0-.77.76l-1,31.61v0a1.13,1.13,0,0,0,1,1.1c2,.18,6.33.43,7.87-.85C76.8,61.38,76.36,60.42,76.19,49.05Z"/><path class="cls-3" d="M119,38.46v4.82H102v4.2h11.51v7.16h-7.94v12h12.44v11l-20.68,1.4V38.46Z"/><path class="cls-3" d="M155.31,70.92l-15,.81-3.84-18.44H128.6V68.71l-8.32-.19s1.35-24.42,1.44-34.43c0-.43,0-1.13,0-1.56a128.21,128.21,0,0,0-1.13-15.41s14.56-1.05,18.41-1a17.08,17.08,0,0,1,9.13,2.41c2.72,1.8,3.91,5.93,4,12.49s-.4,12.25-1.6,15.05a9.55,9.55,0,0,1-3,3.85Zm-10.05-37.2c0-.43,0-1.14,0-1.57a56.92,56.92,0,0,0-.86-9,2,2,0,0,0-1.83-1.48l-8.3-.09L134,44.82l8.23.18h0a2.39,2.39,0,0,0,2.26-1.88,66.18,66.18,0,0,0,.7-8.78v-.62Z"/><path class="cls-3" d="M188.36,87.23c-3.92,3-16.21,1.94-16.21,1.94s-11.14.25-13.48-2.09-1.94-23.28-1.94-23.28.5-18.94,1.79-21.67,5.32-2.65,5.32-2.65l8.64-.24s6.1-.28,9.47-.18c4.66.18,6.15,1.89,7.53,6.93S191.42,66,191.42,66,192.28,84.25,188.36,87.23ZM179.24,69.1c-.09-5.86-.09-14.12-1.3-16s-5.62-2.41-5.62-2.41-4.25-.15-5.77,1.77S164.66,68,164.66,68s-.76,13.12.76,14.56S171.68,84,171.68,84s4.94.11,6.1-.8C179.42,81.93,179.33,75,179.24,69.1Z"/><path class="cls-3" d="M244.38,23.51l-.86,6.33-22.26-3-.75,5.51,15.11,2.06-1.28,9.4-10.42-1.42-2.14,15.72,16.33,2.23-2,14.49-27.4-1.87L216,19.63Z"/><path class="cls-3" d="M275,56.48c-5.54-2.66-13.63-7.32-20-5.41-3.84,1.16-5.1,6.1-1.8,8.56,2.56,1.89,6.27,2.95,9.17,4.2,6.44,2.77,13,5.63,14.28,13.36,1.54,9-5.24,13.11-13.11,13.48-6.75.31-13.5.4-20.24.49l.73-14.7a31,31,0,0,0,13.51,3.7c3.47.07,11.6-.66,9-6.46-1.25-2.74-5.54-3.78-8.06-4.88-2.27-1-4.6-1.88-6.85-2.94-8-3.79-11.49-15.44-5.45-22.81,3-3.66,9.2-3.36,13.49-3.19a110.78,110.78,0,0,1,15.71,2.19Z"/><path class="cls-3" d="M316.15,78.72c-4.41,3.35-18.24,2.18-18.24,2.18s-12.55.28-15.18-2.35-2.18-26.21-2.18-26.21.56-21.31,2-24.38,6-3,6-3l9.73-.27s6.86-.31,10.65-.21c5.25.21,6.93,2.13,8.48,7.81s2.18,22.57,2.18,22.57S320.56,75.36,316.15,78.72ZM305.88,58.31c-.1-6.59-.1-15.9-1.46-18.07s-6.32-2.7-6.32-2.7-4.79-.18-6.5,2-2.13,17.57-2.13,17.57-.86,14.77.86,16.39,7,1.62,7,1.62,5.56.12,6.87-.9C306.09,72.75,306,64.91,305.88,58.31Z"/><path class="cls-3" d="M343.94,22l14.45,1.29V55.56H374.9v-32h8.25l2.07,64H374.9V69.5H364.58V87.05H343.94Z"/><path class="cls-3" d="M414.63,95.26l-.83-12.87-13,1,.69,10.75-11.37,1.31,7.64-39.05-5.91.56-.79-12.28,27-3.57L429.4,93.73Zm3.18-23.15-5.52-19.89-5.92,1L405.08,73.5Z"/><path class="cls-3" d="M461.91,77.1,447.47,79l-5.08-17.5-7.57.59L436,77l-8.05.44s-.51-23.67-1.18-33.33c0-.42-.07-1.09-.11-1.51a123.05,123.05,0,0,0-2.24-14.79s14-2.1,17.69-2.31a16.51,16.51,0,0,1,9,1.64c2.76,1.53,4.22,5.43,4.79,11.76s.53,11.85-.42,14.64a9.25,9.25,0,0,1-2.64,3.93ZM449.43,42c0-.42-.07-1.1-.1-1.52a56.3,56.3,0,0,0-1.5-8.65,1.94,1.94,0,0,0-1.89-1.29l-8,.53,1.47,22.48,8-.45h.06a2.32,2.32,0,0,0,2-2,65.62,65.62,0,0,0,0-8.53c0-.16,0-.43-.05-.59Z"/><path class="cls-3" d="M486.15,92.69V79.79l-13,.2V90.76l-11.43.58,10.13-38.49-5.94.18V40.73l27.17-1.83L501,92.11ZM473,31.21l14.71-8.37,2,7.43L475.5,35.63Zm17.82,38.58-4.23-20.21-6,.58L478,70.36Z"/><path class="cls-3" d="M553.69,85.53c-.71,1-6.63-4.43-11.35-3.26A119,119,0,0,1,525,85c-.38,0-1,.05-1.39.05a23.63,23.63,0,0,1-7.83-1.61A3.31,3.31,0,0,1,514.18,81c-.31-3-.37-10.58-.37-22.88,0-.3,0-.78,0-1.08a141.3,141.3,0,0,1,2.39-23.57,4.47,4.47,0,0,1,1.43-2.23A15.88,15.88,0,0,1,519.49,30c1.28-.64,4.33-1.42,12.06-1.57h.83a64.77,64.77,0,0,1,10.21,1,4.51,4.51,0,0,1,3.26,3.08,100.82,100.82,0,0,1,2.3,15c.64,10.08-.28,28.53-.28,28.53C551.35,79.57,554.4,84.55,553.69,85.53ZM541.81,74.94c.43-2,.79-5.92.36-13.51-.5-9.78-1-14.83-1.49-17.06a2.09,2.09,0,0,0-1.94-1.56H532a2.22,2.22,0,0,0-1.81,1.13c-.84,1.7-1.94,5.9-1.81,16.18.13,9.85.07,13.64.39,15.33A2.25,2.25,0,0,0,530.18,77a24.43,24.43,0,0,0,5.06,1.16h.08a16.72,16.72,0,0,0,4-.6,3.85,3.85,0,0,0,2.44-2.64Z"/><path class="cls-3" d="M565.9,85.18c.07,1.73,2.12,2.09,4.74,2.09a18.38,18.38,0,0,0,4.77-.79c1.72-.86,1.53-3.83,1.53-3.83V47.4l11.87-1.34v39.1s-.29,5.94-3.83,7.66a21.29,21.29,0,0,1-8.05,1.72h-7.85c-1.66.06-6.93-.86-9.19-2.51a7.8,7.8,0,0,1-2.68-4.79l-.58-36.39,9.12,2.41S565.85,84.1,565.9,85.18Z"/><path class="cls-3" d="M624.61,26.18v6.71H601v5.84h16v10H606V65.35H623.3V80.72l-28.78,2V26.18Z"/><path class="cls-3" d="M95.71,107.89v5.42h-19V118H89.61v8H80.7v13.44h14v12.38l-23.2,1.57V107.89Z"/><path class="cls-3" d="M107.56,118.13,106,151.65l15.57-2.92v12.78H99.83L98.39,116Z"/><path class="cls-3" d="M135.68,119.7V103.53H170v13.53l-16.49-1.31L154.82,156l-10.89,1.33,1.32-37.62Z"/><path class="cls-3" d="M175.3,165c.09,2.14,2.63,2.58,5.87,2.58a22.77,22.77,0,0,0,5.91-1c2.14-1.07,1.9-4.75,1.9-4.75V118.16l14.72-1.66V165s-.36,7.36-4.75,9.49a26.31,26.31,0,0,1-10,2.14h-9.73c-2.05.07-8.59-1.08-11.39-3.12a9.64,9.64,0,0,1-3.33-5.93l-.71-45.11,11.31,3S175.24,163.65,175.3,165Z"/><path class="cls-3" d="M242.88,156.54l-14.54.78-3.72-17.84H217V154.4l-8.05-.18s1.31-23.63,1.39-33.32c0-.42,0-1.09,0-1.51a124.18,124.18,0,0,0-1.1-14.92s14.09-1,17.82-.93a16.44,16.44,0,0,1,8.83,2.32c2.64,1.75,3.79,5.74,3.87,12.1s-.39,11.85-1.55,14.56a9.31,9.31,0,0,1-2.94,3.72Zm-9.73-36c0-.42,0-1.1,0-1.52a55.62,55.62,0,0,0-.83-8.74,1.94,1.94,0,0,0-1.78-1.43l-8-.09-.27,22.52,8,.17h.05a2.31,2.31,0,0,0,2.19-1.81,63.94,63.94,0,0,0,.68-8.51v-.59Z"/><path class="cls-3" d="M247.19,125.34l-1.31-7.5,3.59-3.91,10.11,1V125ZM258,131.2l2.93,36.51-14-1.3.65-35.54Z"/><path class="cls-3" d="M294.87,120.53c-5.21-2.5-12.81-6.88-18.83-5.08-3.61,1.09-4.79,5.73-1.69,8,2.4,1.78,5.89,2.77,8.62,3.94,6,2.6,12.17,5.3,13.41,12.55,1.45,8.5-4.92,12.33-12.32,12.67-6.34.3-12.68.38-19,.47l.7-13.82a28.86,28.86,0,0,0,12.68,3.48c3.26.07,10.9-.63,8.44-6.07-1.18-2.57-5.21-3.56-7.58-4.59-2.14-.93-4.33-1.77-6.43-2.76-7.55-3.56-10.8-14.5-5.13-21.43,2.82-3.44,8.65-3.16,12.68-3a103.37,103.37,0,0,1,14.76,2Z"/><path class="cls-3" d="M301.29,137.35V123.76h14.22l7.83,29.46,6.19-31.12h11.33l1.23,53.79H331.17l.82-23.7-2.67-.41L324,175.68h-2.89l-7.52-36.88-2.16-1.65,1,38.53H301.91l1-37.5Z"/><path class="cls-3" d="M385.74,163.43c-4.39,3.49-18.9,3.35-18.9,3.35s-13.08,1.15-16-1.16-3.95-24.7-3.95-24.7-.77-20.25.55-23.26,6.06-3.25,6.06-3.25l10.13-.94s7.15-.78,11.12-1c5.48-.17,7.36,1.53,9.34,6.81s3.72,21.24,3.72,21.24S390.13,159.94,385.74,163.43Zm-12-18.63c-.53-6.24-1.12-15.07-2.68-17s-6.77-2.12-6.77-2.12-5,.17-6.66,2.34-1.1,16.81-1.1,16.81.05,14.06,1.94,15.48,7.46,1.05,7.46,1.05S371.72,161,373,160C374.86,158.48,374.24,151.05,373.72,144.8Z"/><path class="cls-3" d="M454.29,169.15h0a1.74,1.74,0,0,1-1.56,1.7c-3.2.29-14.75,1.1-21.57,1.82-12.62,1.35-17.83,1.09-17.83,1.09l.8-62.48a.68.68,0,0,1,.47-.6,99.93,99.93,0,0,1,15.3-1.33c3.9,0,8.37.12,11.12.31,4.43.26,8.58,4.63,9.34,7.58a47.63,47.63,0,0,1,.76,7.73v.22s.19,8.2-2.14,10.06c-3.26,2.65-11.46,3.57-14,4.36a.31.31,0,0,0,0,.61c2.54.59,10.79,3.25,15.11,6.12C454.55,149.35,454.44,164.39,454.29,169.15Zm-7.89-15.9a8.28,8.28,0,0,0-1.17-3.22c-.84-1-7.06-2.42-10.83-2.63s-14.07-1.15-14.07-1.15l-.47,15.27h24.7s1.52.23,1.71-.26a10.26,10.26,0,0,0,.47-2.7C446.76,157.71,446.49,153.72,446.4,153.25Zm-23-37.42.28,19.62s7.38.24,8.23.05a3.34,3.34,0,0,0,2-1.71c.6-1.13.92-5.77.78-9.08a35,35,0,0,0-1.33-8.12,2.74,2.74,0,0,0-2.16-1.26h0C430.19,115.33,423.43,115.83,423.43,115.83Z"/><path class="cls-3" d="M481.23,175.57,480,162.74,467,164.23,468.08,175l-11.32,1.71,6.26-39.3-5.88.77-1.22-12.24,26.85-4.52,13.17,52.16Zm2.37-23.25-6.22-19.68-5.87,1.17-.58,20.36Z"/><path class="cls-3" d="M499.93,109.36h24.74a.84.84,0,0,1,.83.77c.16,2.67.7,11.94.79,23.41.09,10.81-.19,21.78-.31,25.87A3,3,0,0,1,524,162c-1.86.59-5.36,1.24-11.71,1.17-11.29-.12-13.69-.64-15.16-1.56-1.16-.72-3.75-1.67-4.45-21.88l16.22-1.57s-.48,13.4,0,15.16,4,2.29,5.05,2.29,1.3-2.24,1.71-10.12,1.3-25.51,1.3-25.51l-17.07,1.93Z"/><path class="cls-3" d="M560.68,119.36v6.39H538.22v5.56h15.25v9.49H543v15.86h16.48v14.63L532,173.15V119.36Z"/><path class="cls-3" d="M570,110.7l14.67,2.77-9.39,44.44-5.85-.75Zm-4.17,52.21,11.64,3.52-2.67,9.68-11.29-1.88Z"/></g><path class="cls-4" d="M55,35.93,42.45,33.85l1.47-10.37,11.93.44ZM57.6,90.49l-15.54-.91,3.8-47.21H52Z"/><path class="cls-4" d="M92.92,62.18c-2,2-15.31,2.31-15.31,2.31V76.58l-17.35.73v-58A61.11,61.11,0,0,1,68,18.13a163,163,0,0,1,19.53.7c3.28.47,6.2,3.45,7.58,6.15s1.17,8.6,1.31,19S94.89,60.17,92.92,62.18ZM79.19,43.05c-.1-9.11-.87-14.11-1.63-16.6a3.13,3.13,0,0,0-2.81-2.05H70.63a.76.76,0,0,0-.77.76l-1,31.61v0a1.13,1.13,0,0,0,1,1.1c2,.18,6.33.43,7.87-.85C79.8,55.38,79.36,54.42,79.19,43.05Z"/><path class="cls-4" d="M122,32.46v4.82H105v4.2h11.51v7.16h-7.94v12h12.44v11l-20.68,1.4V32.46Z"/><path class="cls-4" d="M158.31,64.92l-15,.81-3.84-18.44H131.6V62.71l-8.32-.19s1.35-24.42,1.44-34.43c0-.43,0-1.13,0-1.56a128.21,128.21,0,0,0-1.13-15.41s14.56-1,18.41-1a17.08,17.08,0,0,1,9.13,2.41c2.72,1.8,3.91,5.93,4,12.49s-.4,12.25-1.6,15.05a9.55,9.55,0,0,1-3,3.85Zm-10.05-37.2c0-.43,0-1.14,0-1.57a56.92,56.92,0,0,0-.86-9,2,2,0,0,0-1.83-1.48l-8.3-.09L137,38.82l8.23.18h0a2.39,2.39,0,0,0,2.26-1.88,66.18,66.18,0,0,0,.7-8.78v-.62Z"/><path class="cls-4" d="M191.36,81.23c-3.92,3-16.21,1.94-16.21,1.94s-11.14.25-13.48-2.09-1.94-23.28-1.94-23.28.5-18.94,1.79-21.67,5.32-2.65,5.32-2.65l8.64-.24s6.1-.28,9.47-.18c4.66.18,6.15,1.89,7.53,6.93s1.94,20,1.94,20S195.28,78.25,191.36,81.23ZM182.24,63.1c-.09-5.86-.09-14.12-1.3-16.05s-5.62-2.41-5.62-2.41-4.25-.15-5.77,1.77S167.66,62,167.66,62s-.76,13.12.76,14.56S174.68,78,174.68,78s4.94.11,6.1-.8C182.42,75.93,182.33,69,182.24,63.1Z"/><path class="cls-4" d="M247.38,17.51l-.86,6.33-22.26-3-.75,5.51,15.11,2.06-1.28,9.4-10.42-1.42-2.14,15.72,16.33,2.23-2,14.49-27.4-1.87L219,13.63Z"/><path class="cls-4" d="M278,50.48c-5.54-2.66-13.63-7.32-20-5.41-3.84,1.16-5.1,6.1-1.8,8.56,2.56,1.89,6.27,2.95,9.17,4.2,6.44,2.77,13,5.63,14.28,13.36,1.54,9-5.24,13.11-13.11,13.48-6.75.31-13.5.4-20.24.49l.73-14.7a31,31,0,0,0,13.51,3.7c3.47.07,11.6-.66,9-6.46-1.25-2.74-5.54-3.78-8.06-4.88-2.27-1-4.6-1.88-6.85-2.94-8-3.79-11.49-15.44-5.45-22.81,3-3.66,9.2-3.36,13.49-3.19a110.78,110.78,0,0,1,15.71,2.19Z"/><path class="cls-4" d="M319.15,72.72c-4.41,3.35-18.24,2.18-18.24,2.18s-12.55.28-15.18-2.35-2.18-26.21-2.18-26.21.56-21.31,2-24.38,6-3,6-3l9.73-.27s6.86-.31,10.65-.21c5.25.21,6.93,2.13,8.48,7.81s2.18,22.57,2.18,22.57S323.56,69.36,319.15,72.72ZM308.88,52.31c-.1-6.59-.1-15.9-1.46-18.07s-6.32-2.7-6.32-2.7-4.79-.18-6.5,2-2.13,17.57-2.13,17.57-.86,14.77.86,16.39,7,1.62,7,1.62,5.56.12,6.87-.9C309.09,66.75,309,58.91,308.88,52.31Z"/><path class="cls-4" d="M346.94,16l14.45,1.29V49.56H377.9v-32h8.25l2.07,64H377.9V63.5H367.58V81.05H346.94Z"/><path class="cls-4" d="M417.63,89.26l-.83-12.87-13,1,.69,10.75-11.37,1.31,7.64-39.05-5.91.56-.79-12.28,27-3.57L432.4,87.73Zm3.18-23.15-5.52-19.89-5.92,1L408.08,67.5Z"/><path class="cls-4" d="M464.91,71.1,450.47,73l-5.08-17.5-7.57.59L439,71l-8.05.44s-.51-23.67-1.18-33.33c0-.42-.07-1.09-.11-1.51a123.05,123.05,0,0,0-2.24-14.79s14-2.1,17.69-2.31a16.51,16.51,0,0,1,9,1.64c2.76,1.53,4.22,5.43,4.79,11.76s.53,11.85-.42,14.64a9.25,9.25,0,0,1-2.64,3.93ZM452.43,36c0-.42-.07-1.1-.1-1.52a56.3,56.3,0,0,0-1.5-8.65,1.94,1.94,0,0,0-1.89-1.29l-8,.53,1.47,22.48,8-.45h.06a2.32,2.32,0,0,0,2-2,65.62,65.62,0,0,0,0-8.53c0-.16,0-.43-.05-.59Z"/><path class="cls-4" d="M489.15,86.69V73.79l-13,.2V84.76l-11.43.58,10.13-38.49-5.94.18V34.73l27.17-1.83L504,86.11ZM476,25.21l14.71-8.37,2,7.43L478.5,29.63Zm17.82,38.58-4.23-20.21-6,.58L481,64.36Z"/><path class="cls-4" d="M556.69,79.53c-.71,1-6.63-4.43-11.35-3.26A119,119,0,0,1,528,79c-.38,0-1,.05-1.39.05a23.63,23.63,0,0,1-7.83-1.61A3.31,3.31,0,0,1,517.18,75c-.31-3-.37-10.58-.37-22.88,0-.3,0-.78,0-1.08a141.3,141.3,0,0,1,2.39-23.57,4.47,4.47,0,0,1,1.43-2.23A15.88,15.88,0,0,1,522.49,24c1.28-.64,4.33-1.42,12.06-1.57h.83a64.77,64.77,0,0,1,10.21,1,4.51,4.51,0,0,1,3.26,3.08,100.82,100.82,0,0,1,2.3,15c.64,10.08-.28,28.53-.28,28.53C554.35,73.57,557.4,78.55,556.69,79.53ZM544.81,68.94c.43-2,.79-5.92.36-13.51-.5-9.78-1-14.83-1.49-17.06a2.09,2.09,0,0,0-1.94-1.56H535a2.22,2.22,0,0,0-1.81,1.13c-.84,1.7-1.94,5.9-1.81,16.18.13,9.85.07,13.64.39,15.33A2.25,2.25,0,0,0,533.18,71a24.43,24.43,0,0,0,5.06,1.16h.08a16.72,16.72,0,0,0,4-.6,3.85,3.85,0,0,0,2.44-2.64Z"/><path class="cls-4" d="M568.9,79.18c.07,1.73,2.12,2.09,4.74,2.09a18.38,18.38,0,0,0,4.77-.79c1.72-.86,1.53-3.83,1.53-3.83V41.4l11.87-1.34v39.1s-.29,5.94-3.83,7.66a21.29,21.29,0,0,1-8.05,1.72h-7.85c-1.66.06-6.93-.86-9.19-2.51a7.8,7.8,0,0,1-2.68-4.79l-.58-36.39,9.12,2.41S568.85,78.1,568.9,79.18Z"/><path class="cls-4" d="M627.61,20.18v6.71H604v5.84h16v10H609V59.35H626.3V74.72l-28.78,2V20.18Z"/><path class="cls-4" d="M98.71,101.89v5.42h-19V112H92.61v8H83.7v13.44h14v12.38l-23.2,1.57V101.89Z"/><path class="cls-4" d="M110.56,112.13,109,145.65l15.57-2.92v12.78H102.83L101.39,110Z"/><path class="cls-4" d="M138.68,113.7V97.53H173v13.53l-16.49-1.31L157.82,150l-10.89,1.33,1.32-37.62Z"/><path class="cls-4" d="M178.3,159c.09,2.14,2.63,2.58,5.87,2.58a22.77,22.77,0,0,0,5.91-1c2.14-1.07,1.9-4.75,1.9-4.75V112.16l14.72-1.66V159s-.36,7.36-4.75,9.49a26.31,26.31,0,0,1-10,2.14h-9.73c-2.05.07-8.59-1.08-11.39-3.12a9.64,9.64,0,0,1-3.33-5.93l-.71-45.11,11.31,3S178.24,157.65,178.3,159Z"/><path class="cls-4" d="M245.88,150.54l-14.54.78-3.72-17.84H220V148.4l-8.05-.18s1.31-23.63,1.39-33.32c0-.42,0-1.09,0-1.51a124.18,124.18,0,0,0-1.1-14.92s14.09-1,17.82-.93a16.44,16.44,0,0,1,8.83,2.32c2.64,1.75,3.79,5.74,3.87,12.1s-.39,11.85-1.55,14.56a9.31,9.31,0,0,1-2.94,3.72Zm-9.73-36c0-.42,0-1.1,0-1.52a55.62,55.62,0,0,0-.83-8.74,1.94,1.94,0,0,0-1.78-1.43l-8-.09-.27,22.52,8,.17h.05a2.31,2.31,0,0,0,2.19-1.81,63.94,63.94,0,0,0,.68-8.51v-.59Z"/><path class="cls-4" d="M250.19,119.34l-1.31-7.5,3.59-3.91,10.11,1V119ZM261,125.2l2.93,36.51-14-1.3.65-35.54Z"/><path class="cls-4" d="M297.87,114.53c-5.21-2.5-12.81-6.88-18.83-5.08-3.61,1.09-4.79,5.73-1.69,8,2.4,1.78,5.89,2.77,8.62,3.94,6,2.6,12.17,5.3,13.41,12.55,1.45,8.5-4.92,12.33-12.32,12.67-6.34.3-12.68.38-19,.47l.7-13.82a28.86,28.86,0,0,0,12.68,3.48c3.26.07,10.9-.63,8.44-6.07-1.18-2.57-5.21-3.56-7.58-4.59-2.14-.93-4.33-1.77-6.43-2.76-7.55-3.56-10.8-14.5-5.13-21.43,2.82-3.44,8.65-3.16,12.68-3a103.37,103.37,0,0,1,14.76,2Z"/><path class="cls-4" d="M304.29,131.35V117.76h14.22l7.83,29.46,6.19-31.12h11.33l1.23,53.79H334.17l.82-23.7-2.67-.41L327,169.68h-2.89l-7.52-36.88-2.16-1.65,1,38.53H304.91l1-37.5Z"/><path class="cls-4" d="M388.74,157.43c-4.39,3.49-18.9,3.35-18.9,3.35s-13.08,1.15-16-1.16-3.95-24.7-3.95-24.7-.77-20.25.55-23.26,6.06-3.25,6.06-3.25l10.13-.94s7.15-.78,11.12-1c5.48-.17,7.36,1.53,9.34,6.81s3.72,21.24,3.72,21.24S393.13,153.94,388.74,157.43Zm-12-18.63c-.53-6.24-1.12-15.07-2.68-17s-6.77-2.12-6.77-2.12-5,.17-6.66,2.34-1.1,16.81-1.1,16.81.05,14.06,1.94,15.48,7.46,1.05,7.46,1.05S374.72,155,376,154C377.86,152.48,377.24,145.05,376.72,138.8Z"/><path class="cls-4" d="M457.29,163.15h0a1.74,1.74,0,0,1-1.56,1.7c-3.2.29-14.75,1.1-21.57,1.82-12.62,1.35-17.83,1.09-17.83,1.09l.8-62.48a.68.68,0,0,1,.47-.6,99.93,99.93,0,0,1,15.3-1.33c3.9,0,8.37.12,11.12.31,4.43.26,8.58,4.63,9.34,7.58a47.63,47.63,0,0,1,.76,7.73v.22s.19,8.2-2.14,10.06c-3.26,2.65-11.46,3.57-14,4.36a.31.31,0,0,0,0,.61c2.54.59,10.79,3.25,15.11,6.12C457.55,143.35,457.44,158.39,457.29,163.15Zm-7.89-15.9a8.28,8.28,0,0,0-1.17-3.22c-.84-1-7.06-2.42-10.83-2.63s-14.07-1.15-14.07-1.15l-.47,15.27h24.7s1.52.23,1.71-.26a10.26,10.26,0,0,0,.47-2.7C449.76,151.71,449.49,147.72,449.4,147.25Zm-23-37.42.28,19.62s7.38.24,8.23.05a3.34,3.34,0,0,0,2-1.71c.6-1.13.92-5.77.78-9.08a35,35,0,0,0-1.33-8.12,2.74,2.74,0,0,0-2.16-1.26h0C433.19,109.33,426.43,109.83,426.43,109.83Z"/><path class="cls-4" d="M484.23,169.57,483,156.74,470,158.23,471.08,169l-11.32,1.71,6.26-39.3-5.88.77-1.22-12.24,26.85-4.52,13.17,52.16Zm2.37-23.25-6.22-19.68-5.87,1.17-.58,20.36Z"/><path class="cls-4" d="M502.93,103.36h24.74a.84.84,0,0,1,.83.77c.16,2.67.7,11.94.79,23.41.09,10.81-.19,21.78-.31,25.87A3,3,0,0,1,527,156c-1.86.59-5.36,1.24-11.71,1.17-11.29-.12-13.69-.64-15.16-1.56-1.16-.72-3.75-1.67-4.45-21.88l16.22-1.57s-.48,13.4,0,15.16,4,2.29,5.05,2.29,1.3-2.24,1.71-10.12,1.3-25.51,1.3-25.51l-17.07,1.93Z"/><path class="cls-4" d="M563.68,113.36v6.39H541.22v5.56h15.25v9.49H546v15.86h16.48v14.63L535,167.15V113.36Z"/><path class="cls-4" d="M573,104.7l14.67,2.77-9.39,44.44-5.85-.75Zm-4.17,52.21,11.64,3.52-2.67,9.68-11.29-1.88Z"/><g class="cls-2"><path class="cls-3" d="M11.14,29.84l5.24-.25.56,11.5-10.07.49-.63-13Q6,23.77,7.93,21a7,7,0,0,1,5.73-2.94,17.5,17.5,0,0,1,2.17.1l-.31,4.2C11.87,22.29,10.42,24.77,11.14,29.84Zm14.38-.7,5.35-.25.55,11.5-10.06.49-.64-13c-.15-3.19.41-5.7,1.7-7.54a7,7,0,0,1,5.73-2.93,17.36,17.36,0,0,1,2.16.1l-.41,4.21C26.32,21.59,24.87,24.07,25.52,29.14Z"/></g><path class="cls-4" d="M14.14,23.84l5.24-.25.56,11.5-10.07.49-.63-13Q9,17.77,10.93,15a7,7,0,0,1,5.73-2.94,17.5,17.5,0,0,1,2.17.1l-.31,4.2C14.87,16.29,13.42,18.77,14.14,23.84Zm14.38-.7,5.35-.25.55,11.5-10.06.49-.64-13c-.15-3.19.41-5.7,1.7-7.54a7,7,0,0,1,5.73-2.93,17.36,17.36,0,0,1,2.16.1l-.41,4.21C29.32,15.59,27.87,18.07,28.52,23.14Z"/><g class="cls-2"><path class="cls-3" d="M603.14,122.11l-6.17-.65,1.41-13.41L610,109.27l-1.59,15.19q-.58,5.58-3.28,8.42a8.07,8.07,0,0,1-7.09,2.37,18.89,18.89,0,0,1-2.46-.5L596.8,130Q602.92,131.09,603.14,122.11Zm16.73,1.76-6.17-.65,1.41-13.41L626.74,111l-1.6,15.19q-.58,5.58-3.28,8.41a8.1,8.1,0,0,1-7.09,2.38,20.78,20.78,0,0,1-2.46-.5l1.22-4.79Q619.65,132.85,619.87,123.87Z"/></g><path class="cls-4" d="M606.14,116.11l-6.17-.65,1.41-13.41L613,103.27l-1.59,15.19q-.58,5.58-3.28,8.42a8.07,8.07,0,0,1-7.09,2.37,18.89,18.89,0,0,1-2.46-.5L599.8,124Q605.92,125.09,606.14,116.11Zm16.73,1.76-6.17-.65,1.41-13.41L629.74,105l-1.6,15.19q-.58,5.58-3.28,8.41a8.1,8.1,0,0,1-7.09,2.38,20.78,20.78,0,0,1-2.46-.5l1.22-4.79Q622.65,126.85,622.87,117.87Z"/></g></g></svg>