<svg xmlns="http://www.w3.org/2000/svg" viewBox="0 0 629.68 175.99"><defs><style>.cls-1{isolation:isolate;}.cls-2{mix-blend-mode:multiply;}.cls-3{fill:#104587;}.cls-4{fill:#2dabd8;}</style></defs><g class="cls-1"><g id="Capa_4" data-name="Capa 4"><g class="cls-2"><path class="cls-3" d="M8.25,28.28l4.81-1,2.15,10.58L6,39.76l-2.43-12A11.17,11.17,0,0,1,4,20.56,6.54,6.54,0,0,1,8.92,17a15.12,15.12,0,0,1,2-.21l.31,3.93Q6.17,21.4,8.25,28.28ZM21.47,25.6l4.91-1,2.15,10.58-9.26,1.87-2.43-12a11.17,11.17,0,0,1,.51-7.22,6.53,6.53,0,0,1,4.89-3.52,16.57,16.57,0,0,1,2-.22l.21,4Q19.49,18.7,21.47,25.6Z"/></g><path class="cls-4" d="M11.25,22.28l4.81-1,2.15,10.58L9,33.76l-2.43-12A11.17,11.17,0,0,1,7,14.56,6.54,6.54,0,0,1,11.92,11a15.12,15.12,0,0,1,2-.21l.31,3.93Q9.16,15.4,11.25,22.28ZM24.47,19.6l4.91-1,2.15,10.58-9.26,1.87-2.43-12a11.17,11.17,0,0,1,.51-7.22,6.53,6.53,0,0,1,4.89-3.52,16.57,16.57,0,0,1,2-.22l.21,4Q22.49,12.7,24.47,19.6Z"/><g class="cls-2"><path class="cls-3" d="M64.91,65.23c-1.86,1.9-14.45,2.17-14.45,2.17V78.82l-16.37.69V24.75a58,58,0,0,1,7.29-1.1,153.25,153.25,0,0,1,18.43.66c3.1.44,5.86,3.26,7.16,5.8s1.1,8.12,1.24,17.89S66.77,63.33,64.91,65.23ZM52,47.17c-.1-8.6-.82-13.32-1.55-15.66a2.93,2.93,0,0,0-2.64-2h-3.9a.73.73,0,0,0-.72.73l-.91,29.82v0a1.06,1.06,0,0,0,.94,1c1.87.17,6,.41,7.42-.8C52.53,58.8,52.11,57.9,52,47.17Z"/></g><path class="cls-4" d="M67.91,59.23c-1.86,1.9-14.45,2.17-14.45,2.17V72.82l-16.37.69V18.75a58,58,0,0,1,7.29-1.1,153.25,153.25,0,0,1,18.43.66c3.1.44,5.86,3.26,7.16,5.8s1.1,8.12,1.24,17.89S69.77,57.33,67.91,59.23ZM55,41.17c-.1-8.6-.82-13.32-1.55-15.66a2.93,2.93,0,0,0-2.64-2h-3.9a.73.73,0,0,0-.72.73l-.91,29.82v0a1.06,1.06,0,0,0,.94,1c1.87.17,6,.41,7.42-.8C55.53,52.8,55.11,51.9,55,41.17Z"/><g class="cls-2"><path class="cls-3" d="M95.78,30.21v5.43H76.7v4.73h13v8.05H80.73V61.9h14V74.33L71.45,75.9V30.21Z"/></g><path class="cls-4" d="M98.78,24.21v5.43H79.7v4.73h13v8.05H83.73V55.9h14V68.33L74.45,69.9V24.21Z"/><g class="cls-2"><path class="cls-3" d="M129.81,64.23,116.18,65,112.7,48.25h-7.12v14L98,62.06s1.23-22.15,1.31-31.23c0-.39,0-1,0-1.41a114.59,114.59,0,0,0-1-14s13.21-1,16.7-.88a15.47,15.47,0,0,1,8.28,2.18c2.46,1.63,3.55,5.38,3.62,11.33s-.36,11.11-1.45,13.66a8.62,8.62,0,0,1-2.76,3.48ZM120.69,30.5c0-.4,0-1,0-1.43a52.32,52.32,0,0,0-.78-8.19,1.82,1.82,0,0,0-1.67-1.34l-7.52-.09-.26,21.11,7.47.16h0A2.16,2.16,0,0,0,120,39a59.19,59.19,0,0,0,.64-8V30.5Z"/></g><path class="cls-4" d="M132.81,58.23,119.18,59,115.7,42.25h-7.12v14L101,56.06s1.23-22.15,1.31-31.23c0-.39,0-1,0-1.41a114.59,114.59,0,0,0-1-14s13.21-1,16.7-.88a15.47,15.47,0,0,1,8.28,2.18c2.46,1.63,3.55,5.38,3.62,11.33s-.36,11.11-1.45,13.66a8.62,8.62,0,0,1-2.76,3.48ZM123.69,24.5c0-.4,0-1,0-1.43a52.32,52.32,0,0,0-.78-8.19,1.82,1.82,0,0,0-1.67-1.34l-7.52-.09-.26,21.11,7.47.16h0A2.16,2.16,0,0,0,123,33a59.19,59.19,0,0,0,.64-8V24.5Z"/><g class="cls-2"><path class="cls-3" d="M167.22,78.3c-4.21,3.2-17.43,2.08-17.43,2.08s-12,.27-14.5-2.24-2.08-25-2.08-25,.54-20.37,1.92-23.3S140.86,27,140.86,27l9.29-.26s6.56-.3,10.18-.2c5,.2,6.61,2,8.1,7.46s2.08,21.56,2.08,21.56S171.44,75.09,167.22,78.3Zm-9.81-19.5c-.1-6.3-.09-15.19-1.39-17.26S150,39,150,39s-4.57-.17-6.22,1.9-2,16.78-2,16.78-.82,14.11.82,15.66,6.74,1.56,6.74,1.56,5.3.11,6.56-.87C157.61,72.6,157.51,65.1,157.41,58.8ZM142.52,19.2l2-7.46,14.79,8.41-2.52,4.44Z"/></g><path class="cls-4" d="M170.22,72.3c-4.21,3.2-17.43,2.08-17.43,2.08s-12,.27-14.5-2.24-2.08-25-2.08-25,.54-20.37,1.92-23.3S143.86,21,143.86,21l9.29-.26s6.56-.3,10.18-.2c5,.2,6.61,2,8.1,7.46s2.08,21.56,2.08,21.56S174.44,69.09,170.22,72.3Zm-9.81-19.5c-.1-6.3-.09-15.19-1.39-17.26S153,33,153,33s-4.57-.17-6.22,1.9-2,16.78-2,16.78-.82,14.11.82,15.66,6.74,1.56,6.74,1.56,5.3.11,6.56-.87C160.61,66.6,160.51,59.1,160.41,52.8ZM145.52,13.2l2-7.46,14.79,8.41-2.52,4.44Z"/><g class="cls-2"><path class="cls-3" d="M214.27,66.76l1.63-14-14.12-1.43L200.42,63,188,62.22,203.8,21.86l-6.44-.55L198.92,8l29.62,1.45L230.39,68Zm7.93-24.18-2-22.39-6.53-.13-5.36,21.53Z"/></g><path class="cls-4" d="M217.27,60.76l1.63-13.95-14.12-1.43L203.42,57,191,56.22,206.8,15.86l-6.44-.55L201.92,2l29.62,1.45L233.39,62Zm7.93-24.18-2-22.39-6.53-.13-5.36,21.53Z"/><g class="cls-2"><path class="cls-3" d="M237.77,37.42l-1.23-7,3.37-3.67,9.47.92v9.47Zm10.08,5.49,2.75,34.22L237.46,75.9l.61-33.3Z"/></g><path class="cls-4" d="M240.77,31.42l-1.23-7,3.37-3.67,9.47.92v9.47Zm10.08,5.49,2.75,34.22L240.46,69.9l.61-33.3Z"/><g class="cls-2"><path class="cls-3" d="M253.9,18.7l8.85-1.37L273,33.3l6.33-15.88L289.61,26,278.29,45.68,291.46,66l-11,.13-4.1-10.29-5.59,10.93-17.55,1.16L267.69,40.5Z"/></g><path class="cls-4" d="M256.9,12.7l8.85-1.37L276,27.3l6.33-15.88L292.61,20,281.29,39.68,294.46,60l-11,.13-4.1-10.29-5.59,10.93-17.55,1.16L270.69,34.5Z"/><g class="cls-2"><path class="cls-3" d="M329.18,83.36C324.77,86.71,311,85.54,311,85.54s-12.54.29-15.17-2.35S293.6,57,293.6,57s.56-21.3,2-24.37,6-3,6-3l9.72-.27s6.86-.31,10.65-.21c5.24.21,6.92,2.13,8.47,7.81s2.18,22.55,2.18,22.55S333.59,80,329.18,83.36ZM318.92,63c-.11-6.6-.1-15.89-1.46-18.06s-6.32-2.71-6.32-2.71-4.78-.17-6.5,2-2.12,17.55-2.12,17.55-.86,14.77.86,16.39,7,1.62,7,1.62,5.55.12,6.86-.9C319.13,77.4,319,69.56,318.92,63ZM303.34,21.54l2.08-7.81,15.48,8.8-2.64,4.64Z"/></g><path class="cls-4" d="M332.18,77.36C327.77,80.71,314,79.54,314,79.54s-12.54.29-15.17-2.35S296.6,51,296.6,51s.56-21.3,2-24.37,6-3,6-3l9.72-.27s6.86-.31,10.65-.21c5.24.21,6.92,2.13,8.47,7.81s2.18,22.55,2.18,22.55S336.59,74,332.18,77.36ZM321.92,57c-.11-6.6-.1-15.89-1.46-18.06s-6.32-2.71-6.32-2.71-4.78-.17-6.5,2-2.12,17.55-2.12,17.55-.86,14.77.86,16.39,7,1.62,7,1.62,5.55.12,6.86-.9C322.13,71.4,322,63.56,321.92,57ZM306.34,15.54l2.08-7.81,15.48,8.8-2.64,4.64Z"/><g class="cls-2"><path class="cls-3" d="M351,14.76l29.74-4.49,1.26,15-15.45,1.82,1,6.44,10.91-1.64,1,8.46-14.16,1.89L369,66.8,359.06,68Z"/></g><path class="cls-4" d="M354,8.76l29.74-4.49,1.26,15-15.45,1.82,1,6.44,10.91-1.64,1,8.46-14.16,1.89L372,60.8,362.06,62Z"/><g class="cls-2"><path class="cls-3" d="M408.72,79.51V66.1l-13.55.2V77.51l-11.89.6,10.54-40-6.17.19V25.48l28.25-1.91,8.25,55.34Zm4.84-23.82-4.4-21-6.2.6-2.7,21Z"/></g><path class="cls-4" d="M411.72,73.51V60.1l-13.55.2V71.51l-11.89.6,10.54-40-6.17.19V19.48l28.25-1.91,8.25,55.34Zm4.84-23.82-4.4-21-6.2.6-2.7,21Z"/><g class="cls-2"><path class="cls-3" d="M456.83,63.42l-13.63.73-3.48-16.71H432.6v14l-7.55-.17s1.23-22.15,1.3-31.23c0-.39,0-1,0-1.42a114.58,114.58,0,0,0-1-14s13.21-1,16.7-.88a15.29,15.29,0,0,1,8.28,2.18c2.46,1.63,3.54,5.38,3.62,11.33s-.36,11.11-1.45,13.65a8.8,8.8,0,0,1-2.76,3.49Zm-9.12-33.74c0-.39,0-1,0-1.42a52.32,52.32,0,0,0-.78-8.19,1.8,1.8,0,0,0-1.67-1.34l-7.52-.09-.26,21.11,7.47.16h0a2.16,2.16,0,0,0,2.05-1.7,59.19,59.19,0,0,0,.64-8v-.56Z"/></g><path class="cls-4" d="M459.83,57.42l-13.63.73-3.48-16.71H435.6v14l-7.55-.17s1.23-22.15,1.3-31.23c0-.39,0-1,0-1.42a114.58,114.58,0,0,0-1-14s13.21-1,16.7-.88a15.29,15.29,0,0,1,8.28,2.18c2.46,1.63,3.54,5.38,3.62,11.33s-.36,11.11-1.45,13.65a8.8,8.8,0,0,1-2.76,3.49Zm-9.12-33.74c0-.39,0-1,0-1.42a52.32,52.32,0,0,0-.78-8.19,1.8,1.8,0,0,0-1.67-1.34l-7.52-.09-.26,21.11,7.47.16h0a2.16,2.16,0,0,0,2.05-1.7,59.19,59.19,0,0,0,.64-8v-.56Z"/><g class="cls-2"><path class="cls-3" d="M484.41,70.37l-.73-11.45-11.56.91.61,9.57-10.12,1.16,6.82-34.77-5.26.5-.7-10.93,24-3.17L497.57,69ZM469.18,15.66,470.52,9l13.55,6.6-2,4.07Zm18.08,34.1-4.91-17.71-5.26.85L475.92,51Z"/></g><path class="cls-4" d="M487.41,64.37l-.73-11.45-11.56.91.61,9.57-10.12,1.16,6.82-34.77-5.26.5-.7-10.93,24-3.17L500.57,63ZM472.18,9.66,473.52,3l13.55,6.6-2,4.07Zm18.08,34.1-4.91-17.71-5.26.85L478.92,45Z"/><g class="cls-2"><path class="cls-3" d="M558.94,69.88c-.71,1-6.61-4.41-11.3-3.25a119.67,119.67,0,0,1-17.25,2.68c-.38,0-1,0-1.38,0a23.75,23.75,0,0,1-7.81-1.6,3.29,3.29,0,0,1-1.6-2.37c-.31-3-.37-10.54-.37-22.79,0-.29,0-.77,0-1.07a141,141,0,0,1,2.38-23.46A4.45,4.45,0,0,1,523,15.84a15.27,15.27,0,0,1,1.86-1.22c1.27-.64,4.31-1.41,12-1.56h.83a64.14,64.14,0,0,1,10.16,1,4.52,4.52,0,0,1,3.25,3.07A101.19,101.19,0,0,1,553.42,32c.64,10-.28,28.41-.28,28.41C556.61,63.94,559.64,68.9,558.94,69.88ZM547.1,59.33c.44-2,.79-5.89.36-13.45-.49-9.73-1-14.76-1.48-17a2.09,2.09,0,0,0-1.93-1.55h-6.68a2.22,2.22,0,0,0-1.81,1.13c-.83,1.69-1.93,5.87-1.8,16.11.13,9.8.08,13.57.39,15.26a2.21,2.21,0,0,0,1.38,1.56,24.1,24.1,0,0,0,5,1.16h.07a16.49,16.49,0,0,0,4-.6,3.8,3.8,0,0,0,2.43-2.63Z"/></g><path class="cls-4" d="M561.94,63.88c-.71,1-6.61-4.41-11.3-3.25a119.67,119.67,0,0,1-17.25,2.68c-.38,0-1,0-1.38,0a23.75,23.75,0,0,1-7.81-1.6,3.29,3.29,0,0,1-1.6-2.37c-.31-3-.37-10.54-.37-22.79,0-.29,0-.77,0-1.07a141,141,0,0,1,2.38-23.46A4.45,4.45,0,0,1,526,9.84a15.27,15.27,0,0,1,1.86-1.22c1.27-.64,4.31-1.41,12-1.56h.83a64.14,64.14,0,0,1,10.16,1,4.52,4.52,0,0,1,3.25,3.07A101.19,101.19,0,0,1,556.42,26c.64,10-.28,28.41-.28,28.41C559.61,57.94,562.64,62.9,561.94,63.88ZM550.1,53.33c.44-2,.79-5.89.36-13.45-.49-9.73-1-14.76-1.48-17a2.09,2.09,0,0,0-1.93-1.55h-6.68a2.22,2.22,0,0,0-1.81,1.13c-.83,1.69-1.93,5.87-1.8,16.11.13,9.8.08,13.57.39,15.26a2.21,2.21,0,0,0,1.38,1.56,24.1,24.1,0,0,0,5,1.16h.07a16.49,16.49,0,0,0,4-.6,3.8,3.8,0,0,0,2.43-2.63Z"/><g class="cls-2"><path class="cls-3" d="M569.89,72.37c.08,1.8,2.21,2.17,4.93,2.17a18.92,18.92,0,0,0,5-.82c1.79-.89,1.6-4,1.6-4V33.08l12.34-1.39V72.35s-.3,6.18-4,8a22.15,22.15,0,0,1-8.37,1.79H573.2c-1.72.06-7.21-.9-9.56-2.62a8.11,8.11,0,0,1-2.79-5l-.59-37.85,9.48,2.5S569.85,71.24,569.89,72.37Z"/></g><path class="cls-4" d="M572.89,66.37c.08,1.8,2.21,2.17,4.93,2.17a18.92,18.92,0,0,0,5-.82c1.79-.89,1.6-4,1.6-4V27.08l12.34-1.39V66.35s-.3,6.18-4,8a22.15,22.15,0,0,1-8.37,1.79H576.2c-1.72.06-7.21-.9-9.56-2.62a8.11,8.11,0,0,1-2.79-5l-.59-37.85,9.48,2.5S572.85,65.24,572.89,66.37Z"/><g class="cls-2"><path class="cls-3" d="M623.45,11.84l.18,6-21,.61.15,5.21L617,23.23l.26,8.88-9.85.29.43,14.86,15.44-.45.39,13.71L598.07,63l-1.45-50.38Z"/></g><path class="cls-4" d="M626.45,5.84l.18,6-21,.61.15,5.21L620,17.23l.26,8.88-9.85.29.43,14.86,15.44-.45.39,13.71L601.07,57,599.62,6.61Z"/><g class="cls-2"><path class="cls-3" d="M69.12,110v4.9H51.91v4.26H63.59v7.27H55.54v12.15H68.17v11.21l-21,1.42V110Z"/></g><path class="cls-4" d="M72.12,104v4.9H54.91v4.26H66.59v7.27H58.54v12.15H71.17v11.21l-21,1.42V104Z"/><g class="cls-2"><path class="cls-3" d="M79.67,115.74l-1.38,30.34,14.09-2.65V155H72.67l-1.3-41.2Z"/></g><path class="cls-4" d="M82.67,109.74l-1.38,30.34,14.09-2.65V149H75.67l-1.3-41.2Z"/><g class="cls-2"><path class="cls-3" d="M110.48,120.39V103.2H147v14.38l-17.54-1.4L130.83,159l-11.57,1.41,1.4-40Z"/></g><path class="cls-4" d="M113.48,114.39V97.2H150v14.38l-17.54-1.4L133.83,153l-11.57,1.41,1.4-40Z"/><g class="cls-2"><path class="cls-3" d="M153.45,162.39c.09,2,2.51,2.46,5.6,2.46a21.47,21.47,0,0,0,5.62-.94c2-1,1.81-4.52,1.81-4.52V117.81l14-1.58v46.13s-.34,7-4.52,9a25.06,25.06,0,0,1-9.49,2h-9.26c-2,.07-8.18-1-10.85-3a9.21,9.21,0,0,1-3.16-5.64l-.68-42.94,10.76,2.85S153.4,161.11,153.45,162.39Z"/></g><path class="cls-4" d="M156.45,156.39c.09,2,2.51,2.46,5.6,2.46a21.47,21.47,0,0,0,5.62-.94c2-1,1.81-4.52,1.81-4.52V111.81l14-1.58v46.13s-.34,7-4.52,9a25.06,25.06,0,0,1-9.49,2h-9.26c-2,.07-8.18-1-10.85-3a9.21,9.21,0,0,1-3.16-5.64l-.68-42.94,10.76,2.85S156.4,155.11,156.45,156.39Z"/><g class="cls-2"><path class="cls-3" d="M218.3,154.75l-14.69.79-3.76-18h-7.67v15.07l-8.14-.18s1.33-23.88,1.41-33.67c0-.42,0-1.1,0-1.52a124.48,124.48,0,0,0-1.11-15.07s14.24-1,18-1a16.69,16.69,0,0,1,8.93,2.35c2.66,1.76,3.82,5.8,3.91,12.22s-.39,12-1.57,14.72a9.3,9.3,0,0,1-3,3.75Zm-9.83-36.37c0-.42,0-1.11,0-1.54a56.88,56.88,0,0,0-.84-8.83,2,2,0,0,0-1.8-1.44l-8.11-.09-.27,22.75,8,.18h.05a2.34,2.34,0,0,0,2.21-1.84,65,65,0,0,0,.69-8.59v-.6Z"/></g><path class="cls-4" d="M221.3,148.75l-14.69.79-3.76-18h-7.67v15.07l-8.14-.18s1.33-23.88,1.41-33.67c0-.42,0-1.1,0-1.52a124.48,124.48,0,0,0-1.11-15.07s14.24-1,18-1a16.69,16.69,0,0,1,8.93,2.35c2.66,1.76,3.82,5.8,3.91,12.22s-.39,12-1.57,14.72a9.3,9.3,0,0,1-3,3.75Zm-9.83-36.37c0-.42,0-1.11,0-1.54a56.88,56.88,0,0,0-.84-8.83,2,2,0,0,0-1.8-1.44l-8.11-.09-.27,22.75,8,.18h.05a2.34,2.34,0,0,0,2.21-1.84,65,65,0,0,0,.69-8.59v-.6Z"/><g class="cls-2"><path class="cls-3" d="M221.69,128.61l-1.22-7,3.36-3.66,9.47.91v9.47Zm10.09,5.49,2.75,34.22-13.14-1.22.61-33.3Z"/></g><path class="cls-4" d="M224.69,122.61l-1.22-7,3.36-3.66,9.47.91v9.47Zm10.09,5.49,2.75,34.22-13.14-1.22.61-33.3Z"/><g class="cls-2"><path class="cls-3" d="M271.27,120.94c-5.17-3.1-12.66-8.38-19.09-7.1-3.86.79-5.54,5.5-2.53,8.2,2.33,2.08,5.86,3.45,8.58,4.93,6,3.29,12.15,6.68,12.75,14.34.7,9-6.3,12.35-14,12-6.61-.31-13.22-.83-19.82-1.35l2.05-14.3A30.25,30.25,0,0,0,252,142.5c3.38.38,11.39.39,9.35-5.5-1-2.8-5.08-4.2-7.44-5.51-2.13-1.17-4.33-2.25-6.42-3.49-7.51-4.42-9.84-16.11-3.28-22.78,3.26-3.3,9.29-2.45,13.47-1.89a109.37,109.37,0,0,1,15.16,3.55Z"/></g><path class="cls-4" d="M274.27,114.94c-5.17-3.1-12.66-8.38-19.09-7.1-3.86.79-5.54,5.5-2.53,8.2,2.33,2.08,5.86,3.45,8.58,4.93,6,3.29,12.15,6.68,12.75,14.34.7,9-6.3,12.35-14,12-6.61-.31-13.22-.83-19.82-1.35l2.05-14.3A30.25,30.25,0,0,0,255,136.5c3.38.38,11.39.39,9.35-5.5-1-2.8-5.08-4.2-7.44-5.51-2.13-1.17-4.33-2.25-6.42-3.49-7.51-4.42-9.84-16.11-3.28-22.78,3.26-3.3,9.29-2.45,13.47-1.89a109.37,109.37,0,0,1,15.16,3.55Z"/><g class="cls-2"><path class="cls-3" d="M274.45,132.2V117.45h13.32l7.35,32,5.79-33.75h10.62L312.69,174H302.45l.77-25.71-2.51-.45-5,25.93H293l-7.05-40-2-1.79,1,41.8H275l1-40.68Z"/></g><path class="cls-4" d="M277.45,126.2V111.45h13.32l7.35,32,5.79-33.75h10.62L315.69,168H305.45l.77-25.71-2.51-.45-5,25.93H296l-7.05-40-2-1.79,1,41.8H278l1-40.68Z"/><g class="cls-2"><path class="cls-3" d="M343.6,99.4v6.29H322.55v5.46h14.29v9.34H327V136.1h15.45v14.39l-25.69,1.83V99.4Z"/></g><path class="cls-4" d="M346.6,93.4v6.29H325.55v5.46h14.29v9.34H330V130.1h15.45v14.39l-25.69,1.83V93.4Z"/><g class="cls-2"><path class="cls-3" d="M408.25,155.66h0a1.47,1.47,0,0,1-1.33,1.45c-2.72.25-12.53.93-18.33,1.55-10.72,1.15-15.15.92-15.15.92l.68-53.08a.61.61,0,0,1,.4-.52,86.31,86.31,0,0,1,13-1.13c3.31,0,7.11.11,9.44.27,3.76.22,7.29,3.94,7.94,6.44a40.16,40.16,0,0,1,.64,6.56v.19s.16,7-1.82,8.55c-2.76,2.26-9.73,3-11.9,3.7a.27.27,0,0,0,0,.53c2.15.5,9.16,2.76,12.83,5.19S408.37,151.61,408.25,155.66Zm-6.7-13.51a7.2,7.2,0,0,0-1-2.73c-.72-.88-6-2.06-9.2-2.24s-12-1-12-1l-.39,13h21s1.29.2,1.45-.22a8.1,8.1,0,0,0,.4-2.29C401.85,145.94,401.62,142.55,401.55,142.15ZM382,110.36l.23,16.67s6.27.2,7,0a2.84,2.84,0,0,0,1.73-1.45c.51-1,.78-4.9.66-7.71a29.34,29.34,0,0,0-1.13-6.9,2.33,2.33,0,0,0-1.84-1.07h0C387.77,109.93,382,110.36,382,110.36Z"/></g><path class="cls-4" d="M411.25,149.66h0a1.47,1.47,0,0,1-1.33,1.45c-2.72.25-12.53.93-18.33,1.55-10.72,1.15-15.15.92-15.15.92l.68-53.08a.61.61,0,0,1,.4-.52,86.31,86.31,0,0,1,13-1.13c3.31,0,7.11.11,9.44.27,3.76.22,7.29,3.94,7.94,6.44a40.16,40.16,0,0,1,.64,6.56v.19s.16,7-1.82,8.55c-2.76,2.26-9.73,3-11.9,3.7a.27.27,0,0,0,0,.53c2.15.5,9.16,2.76,12.83,5.19S411.37,145.61,411.25,149.66Zm-6.7-13.51a7.2,7.2,0,0,0-1-2.73c-.72-.88-6-2.06-9.2-2.24s-12-1-12-1l-.39,13h21s1.29.2,1.45-.22a8.1,8.1,0,0,0,.4-2.29C404.85,139.94,404.62,136.55,404.55,136.15ZM385,104.36l.23,16.67s6.27.2,7,0a2.84,2.84,0,0,0,1.73-1.45c.51-1,.78-4.9.66-7.71a29.34,29.34,0,0,0-1.13-6.9,2.33,2.33,0,0,0-1.84-1.07h0C390.77,103.93,385,104.36,385,104.36Z"/><g class="cls-2"><path class="cls-3" d="M430,172.33V160.24l-12.2.19v10.09l-10.72.55,9.5-36.07-5.56.17V123.64l25.46-1.72,7.43,49.86Zm4.37-21.47-4-18.93-5.58.54-2.44,18.94Z"/></g><path class="cls-4" d="M433,166.33V154.24l-12.2.19v10.09l-10.72.55,9.5-36.07-5.56.17V117.64l25.46-1.72,7.43,49.86Zm4.37-21.47-4-18.93-5.58.54-2.44,18.94Z"/><g class="cls-2"><path class="cls-3" d="M448.91,113.76l-1.44-8.26,3.95-4.3,11.12,1.07V113.4Zm11.84,6.45L464,160.38l-15.43-1.44.72-39.09Z"/></g><path class="cls-4" d="M451.91,107.76l-1.44-8.26,3.95-4.3,11.12,1.07V107.4Zm11.84,6.45L467,154.38l-15.43-1.44.72-39.09Z"/><g class="cls-2"><path class="cls-3" d="M470.85,110.82l8.92-.85L489,127.86l7.35-16.62,9.71,9.89-12.6,20.41,11.81,22.72-11-.63-3.41-11.36-6.3,11.36H466.91l16.27-28.4Z"/></g><path class="cls-4" d="M473.85,104.82l8.92-.85L492,121.86l7.35-16.62,9.71,9.89-12.6,20.41,11.81,22.72-11-.63-3.41-11.36-6.3,11.36H469.91l16.27-28.4Z"/><g class="cls-2"><path class="cls-3" d="M540.71,102v6.79H516.82v5.91H533v10.08H521.86v16.87h17.53V157.2l-29.14,2V102Z"/></g><path class="cls-4" d="M543.71,96v6.79H519.82v5.91H536v10.08H524.86v16.87h17.53V151.2l-29.14,2V96Z"/><g class="cls-2"><path class="cls-3" d="M544.55,90.77l17.2,1.39-5.34,52.22-6.81-.14Zm1.62,60.53L560,153.91l-1.88,11.46-13.21-.78Z"/></g><path class="cls-4" d="M547.55,84.77l17.2,1.39-5.34,52.22-6.81-.14Zm1.62,60.53L563,147.91l-1.88,11.46-13.21-.78Z"/><g class="cls-2"><path class="cls-3" d="M577.72,108.13l-5.79-.6L573.25,95l10.9,1.14-1.49,14.24c-.37,3.48-1.39,6.11-3.08,7.88a7.56,7.56,0,0,1-6.64,2.23,18.71,18.71,0,0,1-2.31-.47l1.14-4.49Q577.52,116.54,577.72,108.13Zm15.68,1.65-5.79-.61,1.32-12.56,10.9,1.14L598.34,112c-.37,3.49-1.39,6.12-3.08,7.89a7.57,7.57,0,0,1-6.64,2.22,18.26,18.26,0,0,1-2.31-.46l1.14-4.49Q593.19,118.19,593.4,109.78Z"/></g><path class="cls-4" d="M580.72,102.13l-5.79-.6L576.25,89l10.9,1.14-1.49,14.24c-.37,3.48-1.39,6.11-3.08,7.88a7.56,7.56,0,0,1-6.64,2.23,18.71,18.71,0,0,1-2.31-.47l1.14-4.49Q580.52,110.54,580.72,102.13Zm15.68,1.65-5.79-.61,1.32-12.56,10.9,1.14L601.34,106c-.37,3.49-1.39,6.12-3.08,7.89a7.57,7.57,0,0,1-6.64,2.22,18.26,18.26,0,0,1-2.31-.46l1.14-4.49Q596.19,112.19,596.4,103.78Z"/></g></g></svg>